<svg width="39" height="39" viewBox="0 0 30 39" fill="none" xmlns="http://www.w3.org/2000/svg">
<path d="M14.5847 10.4341C12.9997 11.6307 11.3877 13.0319 9.81611 14.6069C2.79307 21.6452 -0.765243 29.4904 1.8684 32.1298C4.50203 34.769 12.3303 31.2031 19.3534 24.1648C20.925 22.5898 22.3231 20.9743 23.5172 19.3859" stroke="white" stroke-width="2" stroke-linecap="round" stroke-linejoin="round"/>
<path d="M23.5172 19.3852C27.659 24.895 29.3455 30.0803 27.3011 32.1291C24.6674 34.7685 16.8391 31.2023 9.81611 24.1641C2.79307 17.1259 -0.765243 9.28062 1.8684 6.64128C3.91267 4.59257 9.08681 6.28268 14.5847 10.4334" stroke="white" stroke-width="2" stroke-linecap="round" stroke-linejoin="round"/>
<path d="M13.3501 19.3861C13.3501 20.0696 13.903 20.6237 14.5851 20.6237C15.2671 20.6237 15.8201 20.0696 15.8201 19.3861C15.8201 18.7025 15.2671 18.1484 14.5851 18.1484C13.903 18.1484 13.3501 18.7025 13.3501 19.3861Z" stroke="white" stroke-width="2" stroke-linecap="round" stroke-linejoin="round"/>
<path d="M19.5482 8.60877C18.7723 8.4735 18.7723 7.35726 19.5482 7.22199C22.3592 6.7319 24.5948 4.58626 25.2049 1.79307L25.2518 1.57896C25.4195 0.810462 26.5115 0.80568 26.6861 1.57268L26.7429 1.82219C27.3755 4.6022 29.6118 6.72972 32.4149 7.21845C33.1949 7.35441 33.1949 8.47634 32.4149 8.61231C29.6118 9.10104 27.3755 11.2286 26.7429 14.0086L26.6861 14.2581C26.5115 15.0251 25.4195 15.0203 25.2518 14.2518L25.2049 14.0377C24.5948 11.2445 22.3592 9.09886 19.5482 8.60877Z" stroke="white" stroke-width="2" stroke-linecap="round" stroke-linejoin="round"/>
</svg>
