<svg viewBox="0 0 291 291" xmlns="http://www.w3.org/2000/svg" xml:space="preserve" fill-rule="evenodd" clip-rule="evenodd" stroke-linejoin="round" stroke-miterlimit="2">
  <path d="M102.668 272.687 17.501 187.52c-23.334-23.334-23.334-61.517 0-84.852l85.167-85.166c23.335-23.335 61.518-23.335 84.853 0l85.166 85.166c23.335 23.335 23.335 61.518 0 84.852l-85.166 85.168c-23.335 23.333-61.518 23.333-84.853 0" fill="#0E78BE" fill-rule="nonzero"/>
  <path d="M127.306 74.74c-30.607 0-55.457 24.85-55.457 55.458 0 30.609 24.85 55.458 55.457 55.458 30.608 0 55.458-24.85 55.458-55.458 0-30.608-24.85-55.458-55.458-55.458Zm0 7.999c26.193 0 47.459 21.266 47.459 47.46 0 26.192-21.266 47.456-47.46 47.456-26.192 0-47.457-21.264-47.457-47.457s21.265-47.46 47.458-47.46Z" fill="#fff"/>
  <path d="M168.553 120.596c-25.266 0-45.78 20.513-45.78 45.78s20.514 45.78 45.78 45.78c25.267 0 45.781-20.513 45.781-45.78s-20.514-45.78-45.781-45.78Zm0 7.999c20.851 0 37.78 16.93 37.78 37.78 0 20.852-16.929 37.78-37.78 37.78-20.852 0-37.78-16.928-37.78-37.78 0-20.85 16.928-37.78 37.78-37.78Z" fill="#fff"/>
</svg>