<?xml version="1.0" encoding="UTF-8" standalone="no"?>
<!-- Created with Inkscape (http://www.inkscape.org/) -->
<svg xmlns:dc="http://purl.org/dc/elements/1.1/" xmlns:cc="http://creativecommons.org/ns#" xmlns:rdf="http://www.w3.org/1999/02/22-rdf-syntax-ns#" xmlns:svg="http://www.w3.org/2000/svg" xmlns="http://www.w3.org/2000/svg" version="1.1" width="379.7276" height="379.72751" id="svg5643">
  <defs id="defs5645"/>
  <g transform="translate(-187.99335,-316.927)" id="layer1">
    <path d="m 566.72094,506.79073 c 0,104.30702 -84.55678,188.86377 -188.86386,188.86377 -104.3062,0 -188.86373,-84.55675 -188.86373,-188.86377 0,-104.30619 84.55753,-188.86373 188.86373,-188.86373 104.30708,0 188.86386,84.55754 188.86386,188.86373 z" id="path160" style="fill:#a13634;fill-opacity:1;fill-rule:nonzero;stroke:none"/>
    <path d="m 360.15375,350.07219 c -2.12141,0.022 -4.17618,0.12068 -6.15625,0.34375 -15.37651,1.73231 -21.47898,20.1932 -24.25,21.46875 11.30931,0.15149 15.30841,4.95226 24.125,2.875 16.04717,-3.77888 18.50238,-15.18666 31.4375,-22.0625 -5.98074,-1.16836 -15.96349,-2.72033 -25.15625,-2.625 z m -24.5625,0.71875 c -0.11615,0.0113 -0.25684,0.0299 -0.375,0.0625 -10.97044,3.03996 -21.55626,6.97233 -31.5625,12.125 -6.00035,4.23584 -3.53055,21.69785 -9.59375,25.8125 6.38512,-1.96386 17.19742,7.74069 26.5,4.96875 4.04491,-1.20323 14.61221,-5.97341 24.03125,-8.65625 0.35343,-0.0996 0.95857,-0.58694 0.34375,-1.125 -7.52188,-3.10751 -12.62939,-8.99838 -22.25,-10.21875 -0.66304,-0.19786 -0.59226,-0.88071 -0.1875,-1.09375 8.1351,-5.33204 5.46801,-10.70727 13.96875,-20.59375 0.61442,-0.92973 -0.062,-1.36007 -0.875,-1.28125 z m -40.59375,17.46875 c -0.29032,-0.0134 -0.62331,0.0886 -0.9375,0.28125 -9.71338,5.93446 -18.82639,12.64469 -27.03126,20.34375 -4.60687,5.72279 2.54181,21.81752 -2.15625,27.4375 5.59951,-3.64237 18.69237,2.71826 26.87501,-2.5 3.56202,-2.26894 12.39892,-9.74 20.71875,-14.90625 0.31353,-0.19328 0.73886,-0.83799 0,-1.1875 -8.08759,-0.92127 -14.60365,-5.18742 -24.18751,-3.71875 -0.69289,-0.007 -0.79835,-0.6513 -0.46875,-0.96875 6.35832,-7.36006 2.29089,-11.81642 7.75001,-23.65625 0.2415,-0.75985 -0.0786,-1.1027 -0.5625,-1.125 z m -33.31251,26.71875 c -0.34436,-0.0329 -0.78775,0.20528 -1.125,0.5625 -7.80628,8.2861 -14.83183,17.12935 -20.71875,26.71875 -2.93505,6.73613 8.23745,20.4013 5.1875,27.0625 4.43967,-4.99007 18.73223,-2.3069 25.25,-9.5 2.83616,-3.12723 9.39754,-12.6674 16.0625,-19.84375 0.25062,-0.26968 0.49312,-1.01377 -0.3125,-1.15625 -8.04312,1.24489 -15.45458,-1.13198 -24.3125,2.8125 -0.67147,0.17467 -0.95255,-0.45121 -0.71875,-0.84375 4.19287,-8.77832 -0.89781,-11.98284 1.25,-24.84375 0.0253,-0.63459 -0.21814,-0.93582 -0.5625,-0.96875 z m 189.15626,1.4375 c -6.68566,0 -12.71875,5.25373 -12.71875,12.15625 0,6.84136 5.59116,11.34375 12.125,11.34375 2.12483,0 4.36929,-0.51527 6.1875,-1.59375 1.13904,-0.67836 3.21875,-2.27059 3.21875,-3.75 0,-0.58488 -0.50968,-1.0625 -1.09375,-1.0625 -0.77111,0 -1.38128,0.78824 -1.875,1.28125 -1.4165,1.47863 -3.37172,2.40625 -5.3125,2.40625 -2.31034,0 -4.45498,-0.9664 -5.6875,-3 -1.01801,-1.72552 -1.5625,-4.24725 -1.5625,-6.25 0,-2.24902 0.45617,-4.46419 1.75,-6.34375 1.26321,-1.81818 3.15604,-2.9375 5.34375,-2.9375 1.13907,0 2.35646,0.4171 3.34375,1.1875 1.01644,0.7704 1.382,1.54728 1.90625,2.65625 0.30818,0.61636 0.69882,1.5625 1.53125,1.5625 0.76961,0 1.28125,-0.44799 1.28125,-1.1875 0,-0.67774 -0.0958,-2.82055 -0.28125,-3.40625 -0.15482,-0.46232 -0.56922,-0.75415 -1,-1 -2.00366,-1.35609 -4.75247,-2.0625 -7.15625,-2.0625 z m -113.0625,0.21875 c -1.13979,0 -1.69581,0.0766 -2.25,1.09375 -0.86315,1.57132 -1.60361,3.11546 -2.28125,4.65625 -1.57135,3.57443 -3.1733,6.98998 -4.34375,10.65625 l -1.09375,3.4375 c -0.21536,0.55439 -0.44384,0.69179 -0.9375,1 -0.33884,0.24693 -0.65625,0.50607 -0.65625,0.9375 0,1.20189 1.38629,1.03125 2.21875,1.03125 l 1.71875,0 c 0.77033,0 2.375,0.17111 2.375,-0.96875 0,-1.14067 -1.625,-0.86288 -1.625,-2.21875 0,-0.98582 0.87929,-3.04652 1.1875,-4.125 l 8.625,0 0.15625,0.5 c 0.21617,0.67754 1.21875,3.72669 1.21875,4.25 0,0.70924 -1.3125,0.60712 -1.3125,1.59375 0,0.98562 1.16592,0.96875 1.875,0.96875 l 5.21875,0 c 0.73964,0 1.5625,-0.13731 1.5625,-1.03125 0,-0.46232 -0.22347,-0.69011 -0.59375,-0.90625 -0.5236,-0.30808 -0.65942,-0.4143 -0.90625,-1 l -1.09375,-3.1875 -6.3125,-14.78125 c -0.64695,-1.5101 -1.02454,-1.90625 -2.75,-1.90625 z m 135.59375,0 c -1.13914,0 -1.69506,0.0766 -2.25,1.09375 -0.86319,1.57132 -1.60368,3.11546 -2.28125,4.65625 -1.57295,3.57443 -3.17255,6.98998 -4.34375,10.65625 l -1.125,3.4375 c -0.21617,0.55439 -0.41413,0.69179 -0.90625,1 -0.33874,0.24693 -0.65625,0.50607 -0.65625,0.9375 0,1.20189 1.38625,1.03125 2.21875,1.03125 l 1.6875,0 c 0.77115,0 2.375,0.17111 2.375,-0.96875 0,-1.14067 -1.59375,-0.86288 -1.59375,-2.21875 0,-0.98582 0.84804,-3.04652 1.15625,-4.125 l 8.625,0 0.15625,0.5 c 0.21617,0.67754 1.25,3.72669 1.25,4.25 0,0.70924 -1.34375,0.60712 -1.34375,1.59375 0,0.98562 1.19799,0.96875 1.90625,0.96875 l 5.1875,0 c 0.73902,0 1.5625,-0.13731 1.5625,-1.03125 0,-0.46232 -0.19307,-0.69011 -0.5625,-0.90625 -0.52282,-0.30808 -0.69067,-0.4143 -0.9375,-1 l -1.0625,-3.1875 -6.3125,-14.78125 c -0.64695,-1.5101 -1.02379,-1.90625 -2.75,-1.90625 z m -120.6875,0.25 c -0.80099,0 -1.75,0.046 -1.75,1.0625 0,0.73951 0.60187,0.87803 1.1875,1.0625 0.73895,0.21643 1.06474,0.63216 1.1875,1.15625 l 0.0937,0.625 0,14.8125 c -0.0307,0.36946 -0.0954,0.72248 -0.1875,1 -0.21617,0.55403 -0.66341,0.6902 -1.15625,0.875 -0.52353,0.21624 -0.78125,0.44558 -0.78125,1.03125 0,1.04766 1.3847,0.9375 2.09375,0.9375 l 2.6875,0 c 0.70905,0 2.09375,0.11029 2.09375,-0.9375 0,-0.58567 -0.25768,-0.81511 -0.78125,-1.03125 -0.49284,-0.1847 -0.94011,-0.32084 -1.15625,-0.875 -0.0921,-0.27762 -0.15812,-0.63054 -0.1875,-1 l 0,-13.09375 5.40625,12.6875 c 0.55491,1.20176 0.9565,1.28125 2.3125,1.28125 1.57138,0 1.69512,-0.64302 2.25,-1.9375 l 5,-12.375 0,13.375 c 0,0.64685 0.11507,1.34772 -0.5625,1.6875 l -0.3125,0.1875 c -0.40012,0.24588 -0.75,0.44581 -0.75,1 0,0.83263 0.82161,1.03125 1.5,1.03125 l 5.875,0 c 0.67761,0 1.5,-0.19869 1.5,-1.03125 0,-0.55419 -0.34991,-0.75415 -0.75,-1 l -0.34375,-0.1875 c -0.6777,-0.33978 -0.53125,-1.04065 -0.53125,-1.6875 l 0,-14.875 c 0,-0.80109 0.0425,-1.28442 0.875,-1.53125 0.58482,-0.18473 1.21875,-0.35457 1.21875,-1.125 0,-0.70902 -0.47762,-1.125 -1.0625,-1.125 l -5.71875,0 c -1.38665,0 -1.50778,0.36156 -2.03125,1.625 l -4.78125,11.625 -4.3125,-11.0625 c -0.46225,-1.23255 -0.61444,-2.1875 -2.09375,-2.1875 l -6.03125,0 z m 30.25,0 c -0.67761,0 -1.53125,0.23072 -1.53125,1.0625 0,0.55501 0.34995,0.72192 0.75,0.96875 l 0.34375,0.1875 c 0.67761,0.33877 0.5625,1.04045 0.5625,1.6875 l 0,14.75 c 0,0.64685 0.11514,1.34772 -0.5625,1.6875 l -0.34375,0.1875 c -0.40005,0.24588 -0.75,0.44581 -0.75,1 0,0.83263 0.85364,1.03125 1.53125,1.03125 l 15.0625,0 c 1.3859,0 1.6311,-0.11235 2.03125,-1.40625 0.27742,-0.7704 0.6875,-1.98092 0.6875,-2.8125 0,-0.58567 -0.57006,-1.03125 -1.125,-1.03125 -0.80177,0 -1.50634,0.94502 -2,1.5 -1.32452,1.44777 -2.52616,1.53125 -4.375,1.53125 -4.19131,-0.0315 -4.5625,-0.2322 -4.5625,-3.40625 l 0,-5.34375 4.65625,0 c 2.0957,0 1.85762,1.09375 2.90625,1.09375 1.23252,0 1.0625,-1.76217 1.0625,-2.59375 0,-0.7704 0.0153,-2.125 -1.0625,-2.125 -1.04863,0 -0.71857,1.125 -2.90625,1.125 l -4.65625,0 0,-5.71875 c 0,-0.40015 0.31828,-0.7527 0.78125,-0.9375 0.55494,-0.21679 1.91562,-0.25 2.5625,-0.25 0.9245,0 2.26076,0.0652 3.0625,0.25 0.86312,0.21624 1.3534,0.60371 1.9375,1.28125 0.40169,0.49359 0.75986,0.90625 1.4375,0.90625 0.80171,0 1.09375,-0.60427 1.09375,-1.3125 0,-0.64685 -0.13113,-2.44449 -0.53125,-2.9375 -0.36949,-0.43163 -1.19387,-0.375 -1.6875,-0.375 l -14.375,0 z m 32.875,0 -10.96875,0.0312 c -0.67764,0 -1.5,0.23092 -1.5,1.0625 0,0.55517 0.3186,0.72192 0.71875,0.96875 l 0.34375,0.1875 c 0.6777,0.33874 0.5625,1.04065 0.5625,1.6875 l 0,14.71875 c 0,0.64685 0.11511,1.34772 -0.5625,1.6875 l -0.34375,0.1875 c -0.40015,0.24588 -0.71875,0.44581 -0.71875,1 0,0.83263 0.82236,1.03125 1.5,1.03125 l 5.875,0 c 0.67764,0 1.5,-0.19869 1.5,-1.03125 0,-0.55419 -0.31853,-0.75415 -0.71875,-1 l -0.34375,-0.18745 c -0.6777,-0.33978 -0.5625,-1.04065 -0.5625,-1.6875 l 0,-5.5 3.0625,-0.46875 c 1.20189,1.35587 3.78125,5.58496 3.78125,7.15625 0,0.86328 -1.3125,0.76303 -1.3125,1.6875 0,1.04648 1.10483,1.03125 1.84375,1.03125 l 6.03125,0 c 0.58563,0 1.59375,-0.0741 1.59375,-0.90625 0,-0.55439 -0.31866,-0.65942 -0.71875,-0.90625 -0.89384,-0.49281 -1.09988,-0.95037 -1.5,-1.875 -1.0486,-2.71176 -2.27912,-5.37426 -4.28125,-7.53125 2.4651,-1.13986 4.6875,-3.07206 4.6875,-5.96875 0,-1.94075 -1.11904,-3.66898 -2.84375,-4.53125 -1.51004,-0.77053 -3.46011,-0.84375 -5.125,-0.84375 z m 13.375,0 c -0.67761,0 -1.53125,0.23072 -1.53125,1.0625 0,0.55501 0.34838,0.72192 0.75,0.96875 l 0.34375,0.1875 c 0.67774,0.33877 0.5625,1.04045 0.5625,1.6875 l 0,14.75 c 0,0.64685 0.11507,1.34772 -0.5625,1.6875 l -0.34375,0.1875 c -0.40162,0.24588 -0.75,0.44581 -0.75,1 0,0.83263 0.85364,1.03125 1.53125,1.03125 l 5.84375,0 c 0.67764,0 1.5,-0.19869 1.5,-1.03125 0,-0.55419 -0.31866,-0.75415 -0.71875,-1 l -0.34375,-0.1875 c -0.67908,-0.33978 -0.5625,-1.04065 -0.5625,-1.6875 l 0,-14.75 c 0,-0.64705 -0.11664,-1.34873 0.5625,-1.6875 l 0.34375,-0.1875 c 0.40009,-0.24693 0.71875,-0.41374 0.71875,-0.96875 0,-0.83184 -0.82236,-1.0625 -1.5,-1.0625 l -5.84375,0 z m 59.65625,0 c -0.80024,0 -1.75,0.046 -1.75,1.0625 0,0.73951 0.57068,0.87803 1.15625,1.0625 1.47941,0.46232 1.25187,1.61291 1.28125,2.9375 l 0,13.65625 c -0.0307,0.36946 -0.0642,0.72248 -0.15625,1 -0.21611,0.55403 -0.69394,0.6902 -1.1875,0.875 -0.52445,0.21624 -0.78125,0.44558 -0.78125,1.03125 0,1.04766 1.38542,0.9375 2.09375,0.9375 l 2.6875,0 c 0.70817,0 2.09375,0.11029 2.09375,-0.9375 0,-0.58567 -0.22578,-0.81511 -0.75,-1.03125 -0.49212,-0.1847 -0.97299,-0.32084 -1.1875,-0.875 -0.0934,-0.27762 -0.15812,-0.63054 -0.1875,-1 l 0,-12.90625 9.65625,13.28125 c 0.49366,0.73971 1.69509,2.63331 2.25,3.1875 0.46153,0.49281 0.88493,0.5 1.5625,0.5 1.87937,0 1.96875,-0.49264 1.96875,-2.1875 l 0,-16.71875 c 0.0307,-0.36946 0.0938,-0.75373 0.1875,-1.03125 0.21467,-0.55468 0.69384,-0.69053 1.1875,-0.875 0.52272,-0.21562 0.75,-0.41512 0.75,-1 0,-1.04766 -1.38402,-0.96875 -2.09375,-0.96875 l -2.6875,0 c -0.70983,0 -2.09375,-0.079 -2.09375,0.96875 0,0.58488 0.2584,0.78451 0.78125,1 0.49359,0.18453 0.97136,0.32019 1.1875,0.875 0.0921,0.27759 0.12687,0.66179 0.15625,1.03125 l 0,10.1875 -4.15625,-5.8125 c -1.60198,-2.24964 -3.80748,-5.49652 -5.65625,-7.4375 -0.77111,-0.83125 -0.95317,-0.8125 -2.09375,-0.8125 l -4.21875,0 z m -75.53125,2.1875 c 2.43447,0 4.46875,1.13185 4.46875,3.8125 0,3.60571 -4.32284,4.71987 -7.21875,4.78125 l 0,-5.9375 c 0,-0.64705 0.006,-1.56913 0.46875,-2.03125 0.46137,-0.49359 1.6343,-0.625 2.28125,-0.625 z m -76.90625,2.34375 3.28125,7.71875 0.15625,0.5 -6.90625,0 3.46875,-8.21875 z m 135.5625,0 3.3125,7.71875 0.15625,0.5 -6.90625,0 3.4375,-8.21875 z M 360.06,428.57219 c -6.68634,0 -12.71875,5.2537 -12.71875,12.15625 0,6.84117 5.59266,11.34375 12.125,11.34375 2.12633,0 4.40057,-0.54652 6.21875,-1.625 1.13982,-0.67832 3.1875,-2.23931 3.1875,-3.71875 0,-0.58469 -0.47765,-1.0625 -1.0625,-1.0625 -0.77115,0 -1.41334,0.78824 -1.90625,1.28125 -1.41725,1.47843 -3.37165,2.40625 -5.3125,2.40625 -2.31106,0 -4.45492,-0.96636 -5.6875,-3 -1.01716,-1.72552 -1.5625,-4.24709 -1.5625,-6.25 0,-2.24906 0.4561,-4.46415 1.75,-6.34375 1.26317,-1.81818 3.15529,-2.9375 5.34375,-2.9375 1.13979,0 2.35803,0.4173 3.34375,1.1875 1.01719,0.7704 1.41318,1.54705 1.9375,2.65625 0.30808,0.61636 0.6675,1.5625 1.5,1.5625 0.77033,0 1.28125,-0.47904 1.28125,-1.21875 0,-0.67754 -0.0958,-2.78953 -0.28125,-3.375 -0.15411,-0.46232 -0.56929,-0.78507 -1,-1.03125 -2.00294,-1.35609 -4.75247,-2.03125 -7.15625,-2.03125 z m 22.34375,0 c -6.71782,0 -12.15625,4.84712 -12.15625,11.6875 0,3.26694 1.1575,6.21969 3.5,8.46875 2.24902,2.12626 5.48105,3.34375 8.5625,3.34375 6.71707,0 12.40625,-4.90998 12.40625,-11.8125 0,-6.99462 -5.53333,-11.6875 -12.3125,-11.6875 z m 48.9375,0 c -6.71785,0 -12.15625,4.84712 -12.15625,11.6875 0,3.26694 1.15757,6.21969 3.5,8.46875 2.24902,2.12626 5.48108,3.34375 8.5625,3.34375 6.71782,0 12.40625,-4.90998 12.40625,-11.8125 0,-6.99462 -5.53337,-11.6875 -12.3125,-11.6875 z m 64.4375,0 c -6.68719,0 -12.75,5.2537 -12.75,12.15625 0,6.84117 5.62391,11.34375 12.15625,11.34375 2.12633,0 4.36935,-0.54652 6.1875,-1.625 1.14054,-0.67832 3.21875,-2.23931 3.21875,-3.71875 0,-0.58469 -0.50808,-1.0625 -1.09375,-1.0625 -0.77115,0 -1.38288,0.78824 -1.875,1.28125 -1.41803,1.47843 -3.4014,2.40625 -5.34375,2.40625 -2.31031,0 -4.42373,-0.96636 -5.65625,-3 -1.01641,-1.72552 -1.5625,-4.24709 -1.5625,-6.25 0,-2.24906 0.4546,-4.46415 1.75,-6.34375 1.26324,-1.81818 3.12486,-2.9375 5.3125,-2.9375 1.14061,0 2.38922,0.4173 3.375,1.1875 1.01644,0.7704 1.382,1.54705 1.90625,2.65625 0.30818,0.61636 0.66757,1.5625 1.5,1.5625 0.76955,0 1.3125,-0.47904 1.3125,-1.21875 0,-0.67754 -0.0958,-2.78953 -0.28125,-3.375 -0.15332,-0.46232 -0.60041,-0.78507 -1.03125,-1.03125 -2.00373,-1.35609 -4.72279,-2.03125 -7.125,-2.03125 z M 328.685,429.04094 c -0.67764,0 -1.5,0.23072 -1.5,1.0625 0,0.55501 0.34985,0.72192 0.75,0.96875 l 0.3125,0.1875 c 0.67832,0.33877 0.5625,1.04065 0.5625,1.6875 l 0,14.75 c 0,0.64685 0.11582,1.34795 -0.5625,1.6875 l -0.3125,0.1875 c -0.40015,0.24611 -0.75,0.41456 -0.75,0.96875 0,0.8323 0.82236,1.0625 1.5,1.0625 l 15.0625,0 c 1.38662,0 1.66241,-0.1438 2.0625,-1.4375 0.27749,-0.7704 0.65625,-1.94967 0.65625,-2.78125 0,-0.5857 -0.53881,-1.03125 -1.09375,-1.03125 -0.80105,0 -1.50712,0.94519 -2,1.5 -1.32527,1.44807 -2.52619,1.53125 -4.375,1.53125 -4.19059,-0.0315 -4.5625,-0.26342 -4.5625,-3.4375 l 0,-5.3125 4.65625,0 c 2.09489,0 1.82797,1.0625 2.875,1.0625 1.23274,0 1.09375,-1.76197 1.09375,-2.59375 0,-0.77023 -0.0145,-2.125 -1.09375,-2.125 -1.04703,0 -0.68739,1.15625 -2.875,1.15625 l -4.65625,0 0,-5.71875 c 0,-0.40015 0.28778,-0.7527 0.75,-0.9375 0.55498,-0.21647 1.91555,-0.25 2.5625,-0.25 0.92434,0 2.29276,0.0655 3.09375,0.25 0.86312,0.2162 1.35187,0.57226 1.9375,1.25 0.40009,0.4934 0.72786,0.9375 1.40625,0.9375 0.80096,0 1.125,-0.60427 1.125,-1.3125 0,-0.64705 -0.13116,-2.44469 -0.53125,-2.9375 -0.37021,-0.43166 -1.19459,-0.375 -1.6875,-0.375 l -14.40625,0 z m 69,0 c -0.8003,0 -1.75,0.0462 -1.75,1.0625 0,0.73974 0.57065,0.8777 1.15625,1.0625 1.47935,0.46232 1.28312,1.61291 1.3125,2.9375 l 0,13.65625 c -0.0304,0.36946 -0.0954,0.72248 -0.1875,1 -0.21611,0.55406 -0.69394,0.6902 -1.1875,0.875 -0.52438,0.21601 -0.75,0.41433 -0.75,1 0,1.04785 1.38549,0.96875 2.09375,0.96875 l 2.6875,0 c 0.7082,0 2.09375,0.079 2.09375,-0.96875 0,-0.58567 -0.257,-0.78386 -0.78125,-1 -0.49212,-0.18473 -0.97299,-0.321 -1.1875,-0.875 -0.0934,-0.27759 -0.12687,-0.63054 -0.15625,-1 l 0,-12.9375 9.625,13.28125 c 0.49359,0.73974 1.69512,2.66436 2.25,3.21875 0.46153,0.49281 0.88329,0.5 1.5625,0.5 1.87937,0 2,-0.49267 2,-2.1875 l 0,-16.75 c 0.0307,-0.36946 0.0629,-0.72248 0.15625,-1 0.21464,-0.55484 0.69541,-0.6902 1.1875,-0.875 0.52432,-0.21542 0.78125,-0.41515 0.78125,-1 0,-1.04782 -1.38552,-0.96875 -2.09375,-0.96875 l -2.6875,0 c -0.70823,0 -2.09375,-0.0791 -2.09375,0.96875 0,0.58485 0.22572,0.78451 0.75,1 0.49363,0.18473 0.97136,0.32002 1.1875,0.875 0.0921,0.27759 0.15485,0.63054 0.1875,1 l 0,10.21875 -4.15625,-5.84375 c -1.60198,-2.24961 -3.8386,-5.46531 -5.6875,-7.40625 -0.77108,-0.83109 -0.95314,-0.8125 -2.09375,-0.8125 l -4.21875,0 z m 48.375,0 c -0.80174,0 -1.75,0.0462 -1.75,1.0625 0,0.73974 0.57062,0.8777 1.15625,1.0625 0.73892,0.2162 1.09468,0.63197 1.21875,1.15625 l 0.0937,0.625 0,14.8125 c -0.0307,0.36946 -0.0938,0.72248 -0.1875,1 -0.2146,0.55406 -0.69384,0.6902 -1.1875,0.875 -0.52278,0.21601 -0.75,0.41433 -0.75,1 0,1.04785 1.38395,0.96875 2.09375,0.96875 l 2.6875,0 c 0.70983,0 2.09375,0.079 2.09375,-0.96875 0,-0.58567 -0.2584,-0.78386 -0.78125,-1 -0.49353,-0.18473 -0.94011,-0.321 -1.15625,-0.875 -0.0921,-0.27759 -0.15812,-0.63054 -0.1875,-1 l 0,-13.09375 5.40625,12.6875 c 0.55494,1.20179 0.95729,1.28125 2.3125,1.28125 1.57289,0 1.69506,-0.64279 2.25,-1.9375 l 5,-12.375 0,13.375 c 0,0.64685 0.11511,1.34795 -0.5625,1.6875 l -0.34375,0.1875 c -0.40009,0.24611 -0.71875,0.41456 -0.71875,0.96875 0,0.8323 0.82076,1.0625 1.5,1.0625 l 5.84375,0 c 0.67757,0 1.53125,-0.23014 1.53125,-1.0625 0,-0.55419 -0.34991,-0.72257 -0.75,-0.96875 l -0.34375,-0.1875 c -0.6777,-0.33955 -0.5625,-1.04065 -0.5625,-1.6875 l 0,-14.90625 c 0,-0.80109 0.0738,-1.25317 0.90625,-1.5 0.5856,-0.18493 1.1875,-0.3546 1.1875,-1.125 0,-0.70905 -0.44555,-1.125 -1.03125,-1.125 l -5.75,0 c -1.38741,0 -1.507,0.33054 -2.03125,1.59375 l -4.7812,11.65625 -4.3125,-11.0625 c -0.46297,-1.23271 -0.61437,-2.1875 -2.09375,-2.1875 l -6,0 z m 28.21875,0 c -0.67757,0 -1.5,0.23072 -1.5,1.0625 0,0.55501 0.34991,0.72192 0.75,0.96875 l 0.34375,0.1875 c 0.67751,0.33877 0.53125,1.04065 0.53125,1.6875 l 0,14.75 c 0,0.64685 0.14632,1.34795 -0.53125,1.6875 l -0.34375,0.1875 c -0.40009,0.24611 -0.75,0.41456 -0.75,0.96875 0,0.8323 0.82243,1.0625 1.5,1.0625 l 5.875,0 c 0.67757,0 1.5,-0.23014 1.5,-1.0625 0,-0.55419 -0.34998,-0.72257 -0.75,-0.96875 l -0.34375,-0.1875 c -0.67744,-0.33955 -0.53125,-1.04065 -0.53125,-1.6875 l 0,-14.75 c 0,-0.64685 -0.14632,-1.34873 0.53125,-1.6875 l 0.34375,-0.1875 c 0.40002,-0.2469 0.75,-0.41374 0.75,-0.96875 0,-0.83165 -0.82243,-1.0625 -1.5,-1.0625 l -5.875,0 z m -91.8125,1.875 c 4.89967,0 6.25,5.55555 6.25,9.46875 0,3.97517 -1.35096,9.34375 -6.28125,9.34375 -4.83754,0 -6.15625,-5.74137 -6.15625,-9.5625 0,-2.0336 0.2631,-3.99432 1.1875,-5.8125 1.01644,-1.97245 2.68891,-3.4375 5,-3.4375 z m 48.9375,0 c 4.8996,0 6.25,5.55555 6.25,9.46875 0,3.97517 -1.35089,9.34375 -6.28125,9.34375 -4.83669,0 -6.15625,-5.74137 -6.15625,-9.5625 0,-2.0336 0.2631,-3.99432 1.1875,-5.8125 1.01644,-1.97245 2.68966,-3.4375 5,-3.4375 z m -195.96876,0.28125 c -0.34043,0.0628 -0.68012,0.37642 -0.90625,0.8125 -5.23152,10.11209 -9.566,20.56762 -12.59375,31.40625 -0.97197,7.28037 13.5436,17.35305 12.4375,24.59375 2.90129,-6.01576 17.36069,-7.38778 21.65625,-16.09375 1.86725,-3.78525 5.5649,-14.73806 10,-23.46875 0.16713,-0.32803 0.18905,-1.11395 -0.625,-1.03125 -7.39389,3.40504 -15.19049,3.15238 -22.625,9.375 -0.59709,0.35111 -1.02656,-0.15527 -0.90625,-0.59375 1.61817,-9.59237 -4.15558,-11.29565 -5.625,-24.25 -0.15063,-0.61854 -0.47207,-0.81284 -0.8125,-0.75 z m 101.53126,30.125 c -2.15702,0 -4.43145,0.42404 -6.1875,1.71875 -1.75687,1.2939 -2.96875,3.37486 -2.96875,5.5625 0,2.0336 1.05467,3.79686 2.71875,4.9375 1.32534,0.89355 3.39661,1.44123 4.96875,1.71875 1.1091,0.21604 2.983,0.63196 3.96875,1.125 0.98654,0.46212 1.53125,1.32758 1.53125,2.40625 0,2.46507 -2.62361,3.5625 -4.75,3.5625 -1.35521,0 -2.79764,-0.35404 -3.9375,-1.09375 -1.01716,-0.67754 -1.4468,-1.45106 -2.09375,-2.4375 -0.43159,-0.64705 -0.88707,-1.15625 -1.71875,-1.15625 -0.89375,0 -1.53125,0.85547 -1.53125,1.71875 0,1.84868 2.14681,3.51108 3.6875,4.25 1.81818,0.83259 3.87209,1.15625 5.875,1.15625 2.49579,0 4.87209,-0.58365 6.875,-2.09375 1.8796,-1.38656 3,-3.53351 3,-5.875 0,-1.7869 -0.8321,-3.45331 -2.21875,-4.59375 -1.20189,-0.95513 -3.02137,-1.53623 -4.5,-1.875 l -2.4375,-0.625 c -1.75693,-0.43143 -3.90625,-1.06292 -3.90625,-3.28125 0,-2.00294 2.11813,-2.96875 3.875,-2.96875 5.05283,0 4.80464,4.375 6.46875,4.375 0.77033,0 1.125,-0.54233 1.125,-1.28125 0,-0.7704 -0.003,-2.01108 -0.21875,-2.75 -0.12341,-0.43163 -0.44229,-0.69076 -0.8125,-0.90625 -2.03364,-1.04779 -4.5321,-1.59375 -6.8125,-1.59375 z m 21.3125,0 c -2.15695,0 -4.43135,0.42404 -6.1875,1.71875 -1.75683,1.2939 -2.96875,3.37486 -2.96875,5.5625 0,2.0336 1.05458,3.79686 2.71875,4.9375 1.32527,0.89355 3.42783,1.44123 5,1.71875 1.10913,0.21604 2.95178,0.63196 3.9375,1.125 0.98654,0.46212 1.53125,1.32758 1.53125,2.40625 0,2.46507 -2.62367,3.5625 -4.75,3.5625 -1.35521,0 -2.79771,-0.35404 -3.9375,-1.09375 -1.0171,-0.67754 -1.4468,-1.45106 -2.09375,-2.4375 -0.43153,-0.64705 -0.88701,-1.15625 -1.71875,-1.15625 -0.89365,0 -1.5,0.85547 -1.5,1.71875 0,1.84868 2.11552,3.51108 3.65625,4.25 1.81818,0.83259 3.87209,1.15625 5.875,1.15625 2.49579,0 4.87209,-0.58365 6.875,-2.09375 1.8795,-1.38656 3.03125,-3.53351 3.03125,-5.875 0,-1.7869 -0.83206,-3.45331 -2.21875,-4.59375 -1.20192,-0.95513 -3.05262,-1.53623 -4.53125,-1.875 l -2.4375,-0.625 c -1.7569,-0.43143 -3.875,-1.06292 -3.875,-3.28125 0,-2.00294 2.08682,-2.96875 3.84375,-2.96875 5.05289,0 4.80464,4.375 6.46875,4.375 0.77036,0 1.15625,-0.54233 1.15625,-1.28125 0,-0.7704 -0.003,-2.01108 -0.21875,-2.75 -0.12338,-0.43163 -0.47354,-0.69076 -0.84375,-0.90625 -2.03357,-1.04779 -4.53207,-1.59375 -6.8125,-1.59375 z m 23.78125,0 c -6.71778,0 -12.125,4.8157 -12.125,11.65625 0,3.26674 1.127,6.25094 3.46875,8.5 2.24896,2.12626 5.48111,3.3125 8.5625,3.3125 6.7186,0 12.4375,-4.91018 12.4375,-11.8125 0,-6.99462 -5.56462,-11.65625 -12.34375,-11.65625 z m 27.46875,0 c -6.68722,0 -12.71875,5.22245 -12.71875,12.125 0,6.84117 5.5927,11.34375 12.125,11.34375 2.12636,0 4.36932,-0.51524 6.1875,-1.59375 1.14058,-0.67832 3.21875,-2.23931 3.21875,-3.71875 0,-0.58488 -0.50812,-1.09375 -1.09375,-1.09375 -0.77108,0 -1.38291,0.78821 -1.875,1.28125 -1.41806,1.47863 -3.37015,2.40625 -5.3125,2.40625 -2.31031,0 -4.45492,-0.93511 -5.6875,-2.96875 -1.01641,-1.72552 -1.5625,-4.24709 -1.5625,-6.25 0,-2.24883 0.45457,-4.4954 1.75,-6.375 1.26321,-1.81818 3.15614,-2.90625 5.34375,-2.90625 1.14061,0 2.35797,0.38585 3.34375,1.15625 1.01638,0.7704 1.38193,1.54708 1.90625,2.65625 0.30818,0.61636 0.69889,1.5625 1.53125,1.5625 0.76965,0 1.28125,-0.44779 1.28125,-1.1875 0,-0.67754 -0.0958,-2.82078 -0.28125,-3.40625 -0.15329,-0.46232 -0.56916,-0.75382 -1,-1 -2.00363,-1.35587 -4.75244,-2.03125 -7.15625,-2.03125 z m 87,0 c -6.71782,0 -12.15625,4.8157 -12.15625,11.65625 0,3.26674 1.12782,6.25094 3.46875,8.5 2.25056,2.12626 5.5123,3.3125 8.59375,3.3125 6.71778,0 12.40625,-4.91018 12.40625,-11.8125 0,-6.99462 -5.53337,-11.65625 -12.3125,-11.65625 z m -182.875,0.21875 c -0.66292,0.0649 -1.08433,0.29951 -1.5,1.0625 -0.86306,1.57129 -1.60368,3.11543 -2.28125,4.65625 -1.57138,3.5742 -3.17324,6.98995 -4.34375,10.65625 l -1.125,3.46875 c -0.21536,0.55439 -0.41259,0.66054 -0.90625,0.96875 -0.33877,0.2469 -0.65625,0.50587 -0.65625,0.9375 0,1.20189 1.38632,1.03125 2.21875,1.03125 l 1.6875,0 c 0.77036,0 2.375,0.17091 2.375,-0.96875 0,-1.14064 -1.59375,-0.83163 -1.59375,-2.1875 0,-0.98582 0.87939,-3.04652 1.1875,-4.125 l 8.625,0 0.15625,0.46875 c 0.21617,0.67754 1.21875,3.7265 1.21875,4.25 0,0.70902 -1.3125,0.60715 -1.3125,1.59375 0,0.98562 1.16589,0.96875 1.875,0.96875 l 5.1875,0 c 0.73971,0 1.59375,-0.1375 1.59375,-1.03125 0,-0.46212 -0.22351,-0.69011 -0.59375,-0.90625 -0.5235,-0.30828 -0.6907,-0.38308 -0.9375,-0.96875 l -1.0625,-3.21875 -6.3125,-14.78125 c -0.64695,-1.51013 -1.02458,-1.875 -2.75,-1.875 -0.28495,0 -0.52903,-0.0216 -0.75,0 z m 127.3125,0 c -0.6632,0.0649 -1.08492,0.29951 -1.5,1.0625 -0.86306,1.57129 -1.60361,3.11543 -2.28125,4.65625 -1.57135,3.5742 -3.17245,6.98995 -4.34375,10.65625 l -1.09375,3.46875 c -0.2146,0.55439 -0.44397,0.66054 -0.9375,0.96875 -0.3388,0.2469 -0.65625,0.50587 -0.65625,0.9375 0,1.20189 1.41757,1.03125 2.25,1.03125 l 1.6875,0 c 0.77118,0 2.375,0.17091 2.375,-0.96875 0,-1.14064 -1.625,-0.83163 -1.625,-2.1875 0,-0.98582 0.87929,-3.04652 1.1875,-4.125 l 8.625,0 0.15625,0.46875 c 0.21611,0.67754 1.21875,3.7265 1.21875,4.25 0,0.70902 -1.3125,0.60715 -1.3125,1.59375 0,0.98562 1.16527,0.96875 1.875,0.96875 l 5.21875,0 c 0.73892,0 1.5625,-0.1375 1.5625,-1.03125 0,-0.46212 -0.22422,-0.69011 -0.59375,-0.90625 -0.52422,-0.30828 -0.65942,-0.38308 -0.90625,-0.96875 l -1.09375,-3.21875 -6.3125,-14.78125 c -0.64688,-1.51013 -1.02376,-1.875 -2.75,-1.875 -0.28513,0 -0.52893,-0.0216 -0.75,0 z m -19.15625,0.25 c -0.67757,0 -1.5,0.19967 -1.5,1.03125 0,0.55498 0.34991,0.75317 0.75,1 l 0.3125,0.1875 c 0.67774,0.33877 0.5625,1.04065 0.5625,1.6875 l 0,14.71875 c 0,0.64685 0.11507,1.34795 -0.5625,1.6875 l -0.3125,0.1875 c -0.40009,0.24611 -0.75,0.44581 -0.75,1 0,0.83263 0.82243,1.03125 1.5,1.03125 l 5.875,0 c 0.67917,0 1.5,-0.19866 1.5,-1.03125 0,-0.55419 -0.34991,-0.75382 -0.75,-1 l -0.34375,-0.1875 c -0.6777,-0.33955 -0.53125,-1.04065 -0.53125,-1.6875 l 0,-14.71875 c 0,-0.64685 -0.14636,-1.34873 0.53125,-1.6875 l 0.34375,-0.1875 c 0.40009,-0.2469 0.75,-0.44502 0.75,-1 0,-0.83168 -0.82083,-1.03125 -1.5,-1.03125 l -5.875,0 z m 31.1875,0 c -0.26598,0.0193 -0.51749,0.0482 -0.65625,0.15625 -0.4614,0.36946 -0.68918,1.94502 -0.78125,2.5 -0.0614,0.30828 -0.15625,0.66123 -0.15625,1 0,0.70905 0.41726,1.15625 1.15625,1.15625 1.41803,0 1.48774,-2.53125 5,-2.53125 1.32593,0 1.25,0.54708 1.25,1.65625 l 0,14.6875 c 0,0.64685 0.11501,1.34795 -0.5625,1.6875 l -0.34375,0.1875 c -0.40162,0.24611 -0.75,0.44581 -0.75,1 0,0.83263 0.85361,1.03125 1.53125,1.03125 l 5.84375,0 c 0.67757,0 1.5,-0.19866 1.5,-1.03125 0,-0.55419 -0.3185,-0.75382 -0.71875,-1 l -0.34375,-0.1875 c -0.67751,-0.33955 -0.5625,-1.04065 -0.5625,-1.6875 l 0,-14.6875 c 0,-1.10917 -0.0761,-1.65625 1.25,-1.65625 3.5122,0 3.55065,2.53125 4.96875,2.53125 0.73889,0 1.1875,-0.4472 1.1875,-1.15625 0,-0.33877 -0.0949,-0.69179 -0.15625,-1 -0.092,-0.55498 -0.31985,-2.13054 -0.78125,-2.5 -0.27752,-0.21483 -1.00554,-0.15625 -1.375,-0.15625 l -15.78125,0 c -0.18473,0 -0.45277,-0.0193 -0.71875,0 z m 21.75,0 c -0.67764,0 -1.5,0.19967 -1.5,1.03125 0,0.55498 0.34985,0.75317 0.75,1 l 0.34375,0.1875 c 0.67748,0.33877 0.53125,1.04065 0.53125,1.6875 l 0,14.71875 c 0,0.64685 0.14639,1.34795 -0.53125,1.6875 l -0.34375,0.1875 c -0.40015,0.24611 -0.75,0.44581 -0.75,1 0,0.83263 0.82236,1.03125 1.5,1.03125 l 5.875,0 c 0.67754,0 1.5,-0.19866 1.5,-1.03125 0,-0.55419 -0.34831,-0.75382 -0.75,-1 l -0.3125,-0.1875 c -0.67754,-0.33955 -0.5625,-1.04065 -0.5625,-1.6875 l 0,-14.71875 c 0,-0.64685 -0.11507,-1.34873 0.5625,-1.6875 l 0.3125,-0.1875 c 0.40169,-0.2469 0.75,-0.44502 0.75,-1 0,-0.83168 -0.82246,-1.03125 -1.5,-1.03125 l -5.875,0 z m 37.3125,0 c -0.60623,0.0565 -1.15625,0.26902 -1.15625,1.03125 0,0.73971 0.60183,0.90928 1.1875,1.09375 1.47801,0.46232 1.25187,1.58186 1.28125,2.90625 l 0,13.65625 c -0.0307,0.36946 -0.0954,0.75373 -0.1875,1.03125 -0.21611,0.55406 -0.66259,0.65895 -1.15625,0.84375 -0.52272,0.2162 -0.78125,0.44539 -0.78125,1.03125 0,1.04798 1.38395,0.9375 2.09375,0.9375 l 2.6875,0 c 0.70983,0 2.09375,0.11032 2.09375,-0.9375 0,-0.58586 -0.25843,-0.81511 -0.78125,-1.03125 -0.49366,-0.18473 -0.94011,-0.28956 -1.15625,-0.84375 -0.0921,-0.27759 -0.15812,-0.66179 -0.1875,-1.03125 l 0,-12.90625 9.625,13.28125 c 0.49212,0.7399 1.69506,2.63331 2.25,3.1875 0.46153,0.49281 0.91618,0.5 1.59375,0.5 1.8795,0 1.96875,-0.49267 1.96875,-2.1875 l 0,-16.71875 c 0.0323,-0.36946 0.0954,-0.75373 0.1875,-1.03125 0.2162,-0.55484 0.66259,-0.65895 1.15625,-0.84375 0.52442,-0.21542 0.78125,-0.44637 0.78125,-1.03125 0,-1.04801 -1.38545,-0.9375 -2.09375,-0.9375 l -2.6875,0 c -0.70826,0 -2.09375,-0.11051 -2.09375,0.9375 0,0.58488 0.25693,0.81576 0.78125,1.03125 0.49212,0.18473 0.94174,0.28897 1.15625,0.84375 0.0934,0.27759 0.15812,0.66179 0.1875,1.03125 l 0,10.1875 -4.15625,-5.8125 c -1.60204,-2.24981 -3.83873,-5.49675 -5.6875,-7.4375 -0.76961,-0.83129 -0.95314,-0.78125 -2.09375,-0.78125 l -4.21875,0 c -0.20007,0 -0.39167,-0.0188 -0.59375,0 z m -129.9375,1.875 c 4.8996,0 6.25,5.5243 6.25,9.4375 0,3.97517 -1.35089,9.34375 -6.28125,9.34375 -4.83747,0 -6.15625,-5.71012 -6.15625,-9.53125 0,-2.03442 0.29431,-4.02557 1.21875,-5.84375 1.01723,-1.97225 2.65769,-3.40625 4.96875,-3.40625 z m 114.46875,0 c 4.89967,0 6.25,5.5243 6.25,9.4375 0,3.97517 -1.35096,9.34375 -6.28125,9.34375 -4.83829,0 -6.1875,-5.71012 -6.1875,-9.53125 0,-2.03442 0.29425,-4.02557 1.21875,-5.84375 1.01794,-1.97225 2.68816,-3.40625 5,-3.40625 z m -183.5625,2.65625 3.28125,7.6875 0.15625,0.5 -6.90625,0 3.46875,-8.1875 z m 127.3125,0 3.28125,7.6875 0.15625,0.5 -6.90625,0 3.46875,-8.1875 z m -219.65626,5.5 c -0.41316,0.0125 -0.78122,0.49406 -0.90625,1.09375 -2.34864,11.13917 -3.72241,22.37227 -3.75,33.625 1.0026,7.27717 17.63463,13.09943 18.5,20.375 1.18968,-6.57214 14.77557,-11.71441 16.59375,-21.25 0.7895,-4.14553 1.4242,-15.71575 3.375,-25.3125 0.0728,-0.36029 -0.0834,-1.10984 -0.84375,-0.8125 -6.21727,5.25212 -13.80735,7.08148 -19.3125,15.0625 -0.48135,0.50136 -1.02743,0.11171 -1.03125,-0.34375 -0.99496,-9.67808 -7.00521,-9.78073 -11.875,-21.875 -0.23195,-0.41737 -0.50211,-0.57001 -0.75,-0.5625 z m 152.28126,19.125 c 1.07626,6.99821 -3.43427,9.49176 -6.84375,14.875 -3.40948,5.38324 -4.64583,18.322 8.09375,19.21875 -3.94758,-7.17772 -1.94281,-12.9828 -0.71875,-15.09375 2.14092,-3.69157 9.87592,-14.69302 -0.53125,-19 z m 155.9375,3.875 -4.28125,0.8125 c 0.88761,1.19807 1.32552,6.4251 0.375,10.09375 0.0921,1.96527 -18.86313,9.33618 -21.5,17.5625 -1.28933,4.0196 -3.30488,15.42989 -6.40625,24.71875 -0.11656,0.34951 -0.0429,1.10871 0.75,0.90625 6.80982,-4.45802 14.53302,-5.34087 20.96875,-12.59375 0.5381,-0.43541 1.05371,-0.0147 1,0.4375 -0.18708,9.72728 5.76142,10.55922 9.125,23.15625 0.47978,1.18051 1.40136,0.6167 1.71875,-0.3125 3.68233,-10.77128 6.41742,-21.74119 7.8125,-32.90625 -0.095,-6.24411 -11.52951,-18.10328 -11.4375,-19.65625 0.0921,-1.55215 1.875,-12.21875 1.875,-12.21875 z m -147.25,2.75 c 0.8578,5.21327 -1.44007,8.54267 -4.09375,12.59375 -3.40952,5.20471 -2.87754,13.37706 2.15625,14.53125 -0.71757,-6.99818 4.47996,-8.97102 6.8125,-11.125 4.10554,-3.79122 3.41884,-12.79125 -4.875,-16 z m 9.03125,16.53125 c -1.17737,2.2566 -4.85425,3.77854 -6.375,5.59375 -1.79138,2.13704 -1.29664,5.02253 1.15625,5.21875 -0.78496,-3.33589 7.84641,-5.9113 5.21875,-10.8125 z m -139.31251,0.4375 c -0.12738,10e-4 -0.27481,0.0325 -0.4375,0.15625 -4.53553,6.75905 -11.30263,10.595 -14.40625,19.78125 -0.32578,0.61159 -0.96501,0.40738 -1.09375,-0.0312 -3.61263,-9.0326 -9.43653,-7.48845 -17.4375,-17.78125 -0.90302,-0.89995 -1.50799,-0.0118 -1.4375,0.96875 0.80177,11.35518 2.56049,22.51586 5.625,33.34375 2.96261,6.72239 20.57623,7.77517 23.40625,14.53125 -0.65922,-6.64726 10.96608,-15.3341 10.09375,-25 -0.3756,-4.20512 -2.92791,-15.48625 -3.6875,-25.25 -0.0213,-0.27484 -0.24285,-0.72205 -0.625,-0.71875 z m 107.87501,16.4375 0,3.34375 36.5,0 0,-3.34375 -36.5,0 z m 2.9375,5.40625 0,5.3125 30.59375,0 0,-5.3125 -30.59375,0 z m -2.9375,7.375 0,3.3125 36.5,0 0,-3.3125 -36.5,0 z m 158.46875,0.28125 c -3.65478,5.58952 -18.17694,5.05053 -23.5625,13.125 -2.34403,3.51086 -7.43601,13.91936 -12.96875,22 -0.20863,0.30364 -0.34827,1.0722 0.46875,1.09375 7.77109,-2.41625 15.44622,-1.16732 23.625,-6.375 0.63928,-0.27132 1.01849,0.29718 0.84375,0.71875 -2.85147,9.30101 2.66294,11.7442 2.4375,24.78125 0.13647,1.26461 1.15767,0.96099 1.71875,0.15625 6.49858,-9.34688 12.1238,-19.14582 16.53125,-29.5 1.90865,-7.09345 -11.12807,-18.96176 -9.09375,-26 z m -259.65626,3.53125 c -0.17452,-0.0191 -0.34498,0.0693 -0.53125,0.3125 -2.59318,7.71441 -8.14915,13.19696 -8.71875,22.875 -0.15557,0.67754 -0.79288,0.63794 -1.03125,0.25 -5.86776,-7.75884 -11.06609,-4.70965 -21.5,-12.53125 -1.10613,-0.62991 -1.47971,0.38666 -1.15625,1.3125 3.76748,10.74359 8.41077,21.05069 14.21875,30.6875 4.63139,5.70147 21.89374,2.04047 26.40625,7.8125 -2.38922,-6.23794 6.54578,-17.68567 3.15625,-26.78125 -1.47252,-3.95682 -6.91117,-14.15826 -10.21875,-23.375 -0.0771,-0.21747 -0.33413,-0.53074 -0.625,-0.5625 z m 106.87501,1.71875 5.5,35.34375 13.90625,0 5.71875,-35.34375 -25.125,0 z m 29.1875,0.9375 -0.5,1.875 -0.84375,3.03125 c 0.90295,0.19165 1.78399,0.41769 2.65625,0.6875 12.46059,3.86338 21.5,15.45596 21.5,29.1875 0,5.30436 -1.34409,10.30862 -3.71875,14.65625 -0.44305,0.81104 -3.17693,4.48656 -3.6875,5.25 l 3.65625,0.5 c 0.52285,-0.78035 2.19788,-3.23787 2.65625,-4.0625 0.23899,-0.43081 0.46672,-0.87092 0.6875,-1.3125 l 2.375,0.59375 0.78125,-1.96875 -2.03125,-1.125 c 0.59477,-1.47941 1.08548,-3.01766 1.46875,-4.59375 l 2.375,0.0625 0.34375,-2.09375 -2.1875,-0.65625 c 0.22855,-1.45489 0.37099,-2.92897 0.40625,-4.4375 l 2.3125,-0.4375 -0.15625,-2.125 -2.21875,-0.15625 c -0.0917,-1.63864 -0.30784,-3.24418 -0.625,-4.8125 l 2.125,-0.9375 -0.625,-2.03125 -2.15625,0.3125 c -0.35568,-1.22795 -0.76258,-2.42856 -1.25,-3.59375 l 2,-1.375 -0.96875,-1.875 -2.1875,0.78125 c -0.73889,-1.4272 -1.57096,-2.79509 -2.5,-4.09375 l 1.65625,-1.8125 -1.375,-1.625 -1.96875,1.25 c -0.95362,-1.1267 -2.00061,-2.19411 -3.09375,-3.1875 l 1.25,-2.09375 -1.6875,-1.3125 -1.65625,1.65625 c -1.26477,-0.97508 -2.60342,-1.86672 -4,-2.65625 l 0.75,-2.34375 -1.9375,-0.875 -1.25,1.96875 c -1.53002,-0.70683 -3.10659,-1.33725 -4.75,-1.8125 l 0.1875,-1.96875 -1.8125,-0.4375 z m -2,7.0625 -1.125,4.90625 c 10.62707,2.15101 18.625,11.5492 18.625,22.8125 0,7.35869 -3.41805,13.9226 -8.75,18.1875 l 5.625,1.125 c 4.8107,-5.01616 7.78125,-11.81433 7.78125,-19.3125 0,-13.44638 -9.49793,-25.06657 -22.15625,-27.71875 z m -1.5,7.25 -2.03125,11.1875 c 3.98588,1.12213 7.25,4.93502 7.25,9.28125 0,3.58279 -1.72438,6.53296 -5.4375,8.65625 l 0.15625,9.15625 c 8.76441,0.13027 16.71875,-7.68507 16.71875,-17.8125 0,-10.09654 -7.14371,-18.50188 -16.65625,-20.46875 z m -34.6875,5.3125 c -2.46552,0.13984 -5.10374,1.40223 -7.25,5.09375 5.59255,4.80776 12.56892,-0.9754 14.53125,-2.9375 -1.2142,-0.66234 -4.1113,-2.33604 -7.28125,-2.15625 z m -22.71875,6.40625 c -1.84886,-0.0454 -4.06964,0.71883 -6.71875,3 5.00389,-0.39258 5.00397,5.69132 13.34375,0.6875 -1.47171,-1.28771 -3.54357,-3.61182 -6.625,-3.6875 z m 26.15625,0.65625 c -3.72837,1.3734 -6.26817,8.42719 -6.5625,11.46875 4.70949,-0.29417 9.30972,-5.38583 6.5625,-11.46875 z m -10.96875,0.75 c -2.96768,0.17448 -6.12768,2.03308 -8.5,8.71875 5.11888,-3.61488 8.43094,3.86155 14.59375,-7.5 -1.58821,-0.46008 -3.78556,-1.35446 -6.09375,-1.21875 z m 40.1875,0.4375 -1.4375,6.90625 3,-0.25 0.125,6.40625 c 0.0722,-0.40015 3.14164,-1.70123 3.03125,-6.15625 -0.0735,-2.96803 -2.09876,-5.91286 -4.71875,-6.90625 z m -114.71876,0.8125 c -0.17305,0.0296 -0.32541,0.15234 -0.4375,0.4375 -0.37638,8.12968 -4.20245,14.90996 -2.09375,24.375 0.0376,0.69148 -0.60177,0.8423 -0.9375,0.53125 -7.77406,-5.84719 -11.94496,-1.50354 -24.125,-6.15625 -1.23794,-0.30364 -1.31725,0.76079 -0.75,1.5625 6.57214,9.29324 13.89329,17.95366 22.125,25.625 6.01801,4.21292 21.60986,-4.03122 27.53126,0.28125 -4.00818,-5.34282 1.44098,-18.80801 -4.3125,-26.625 -2.50272,-3.40024 -10.53864,-11.7324 -16.25001,-19.6875 -0.13462,-0.18671 -0.46159,-0.39304 -0.75,-0.34375 z m 229.06251,0.6875 c -5.00078,4.42733 -18.86413,0.0689 -26.1875,6.4375 -3.18724,2.76854 -10.84499,11.47632 -18.3125,17.8125 -0.28046,0.23769 -0.59429,0.92013 0.1875,1.15625 8.13435,-0.28209 15.20604,2.96068 24.46875,0.0937 0.68675,-0.0934 0.90552,0.54616 0.625,0.90625 -5.20318,8.22034 -0.53419,12.01708 -4.1875,24.53125 -0.20243,1.25864 0.87217,1.2551 1.625,0.625 8.73219,-7.30188 16.73879,-15.26779 23.71875,-24.09375 3.71306,-6.33899 -5.75637,-21.21707 -1.9375,-27.46875 z m -171.0625,4.1875 c -2.46668,-0.12679 -5.2632,0.99544 -7.78125,6.25 4.42592,-2.36702 10.76882,1.0962 11.75,-5.28125 -1.11874,-0.35354 -2.48874,-0.89267 -3.96875,-0.96875 z m 17.6875,2.75 c -1.47171,0.49062 -3.22888,0.5668 -4.40625,0.46875 -1.30461,-0.10872 -1.77019,3.52954 -4.125,6.375 7.75111,-2.06051 7.94258,-6.15684 8.53125,-6.84375 z m 17.53125,0.3125 0,3.4375 20.78125,0 0,-3.4375 -20.78125,0 z m -28.375,0.71875 c -3.34356,1.01334 -9.12429,1.98029 -6.6875,12.09375 2.25741,-4.90398 10.39138,-5.7179 6.6875,-12.09375 z m 18.15625,1.3125 c -2.0361,0.36574 -0.76714,4.85785 -0.0312,5.59375 1.47171,-2.45292 2.72541,-5.39746 0.46875,-5.59375 -0.16619,-0.0145 -0.30176,-0.0244 -0.4375,0 z m 11.25,3.03125 0,1.9375 18.75,0 0,-1.9375 -18.75,0 z m -40.53125,0.71875 c -1.53566,0.0989 -3.12777,1.01127 -4.0625,4.59375 2.45067,-1.85485 6.77143,-0.0852 6.625,-4.28125 -0.73127,-0.14654 -1.6411,-0.37184 -2.5625,-0.3125 z m 18.25,1.09375 c -0.0498,-3.4e-4 -0.11506,0.0159 -0.1875,0.0625 -1.37363,0.883 -2.86332,0.89379 -4.53125,1.875 -0.98118,2.45269 1.09516,5.66933 2.46875,5.375 1.28778,-2.29958 2.99716,-7.30743 2.25,-7.3125 z m 21.25,1.75 0,3.4375 20.78125,0 0,-3.4375 -20.78125,0 z m 3.46875,5.0625 1.03125,2.53125 0.90625,6.71875 9.84375,0 1.03125,-7.3125 1.0625,-1.9375 -13.875,0 z m -72.46875,4.3125 c -0.23254,0.0293 -0.43119,0.18743 -0.46875,0.59375 1.88867,7.91664 0.10258,15.49012 4.75,24 0.22842,0.65465 -0.37267,0.98371 -0.78125,0.78125 -9.09019,-3.4692 -11.88399,1.8478 -24.87501,0.75 -1.27241,0.0522 -1.04704,1.10719 -0.28125,1.71875 8.89011,7.11039 18.3069,13.37763 28.34376,18.46875 6.9493,2.38096 19.6448,-9.84568 26.53125,-7.34375 -5.33195,-4.0228 -3.80417,-18.45909 -11.5,-24.375 -3.34513,-2.57245 -13.40164,-8.34465 -21.09375,-14.40625 -0.14371,-0.11411 -0.39246,-0.21678 -0.625,-0.1875 z m 158.34375,4.09375 c -1.821,0.0717 -3.6015,0.44752 -5.25,1.21875 -3.82341,1.78752 -13.57926,8.02138 -22.5,12.0625 -0.3342,0.15182 -0.81172,0.74608 -0.125,1.1875 7.89816,1.96246 13.80655,7.02554 23.5,6.8125 0.68675,0.0979 0.71168,0.76144 0.34375,1.03125 -7.26055,6.47569 -3.83195,11.40555 -10.78125,22.4375 -0.53963,1.15282 0.5094,1.4298 1.40625,1.03125 10.40165,-4.62381 20.30209,-10.05427 29.4375,-16.625 5.31046,-5.07578 0.26772,-22.00476 5.65625,-26.96875 -4.89398,2.34417 -13.79649,-2.49813 -21.6875,-2.1875 z m -80.96875,3.375 1.0625,8.21875 1.875,0 1.09375,-8.21875 -4.03125,0 z M 328.435,622.91594 c -0.35255,-0.0116 -0.76887,0.1786 -0.65625,0.78125 3.9913,7.09322 4.35106,14.84347 11.15625,21.75 0.3993,0.56715 -0.0502,1.05165 -0.5,0.96875 -9.6911,-0.84017 -10.92553,5.05003 -23.71875,7.5625 -1.21038,0.39855 -0.71846,1.34015 0.1875,1.71875 10.49986,4.39683 21.29662,7.8614 32.34375,10 7.33643,0.38184 16.16151,-14.8587 23.46875,-14.34375 -6.23105,-2.40368 -8.72654,-16.73905 -17.75,-20.3125 -3.92391,-1.55754 -15.15847,-4.34641 -24.21875,-8.0625 -0.0851,-0.0353 -0.19498,-0.0586 -0.3125,-0.0625 z m 94.34375,2.875 c -0.59737,0.009 -1.18308,0.0551 -1.78125,0.15625 -4.16225,0.70366 -15.23121,4.13697 -24.90625,5.65625 -0.36339,0.0565 -1.01295,0.482 -0.46875,1.09375 7.09035,3.99668 11.4431,10.46439 20.84375,12.84375 0.63317,0.27752 0.48871,0.93416 0.0625,1.09375 -8.72308,4.30777 -6.73672,9.97027 -16.375,18.75 -0.82626,0.96887 0.0907,1.52045 1.0625,1.375 11.2587,-1.6835 22.25593,-4.32328 32.8125,-8.21875 6.47099,-3.47697 6.13919,-21.09243 12.65625,-24.4375 -6.16432,1.09962 -14.94563,-8.44969 -23.90625,-8.3125 z m -61.65625,6.03125 c -0.36636,-0.0444 -1.10647,0.20142 -0.75,0.9375 5.71979,5.78878 8.11419,13.19496 16.5,18.0625 0.53581,0.44318 0.20546,1.02264 -0.25,1.0625 -9.57086,1.74466 -9.19473,7.73627 -20.875,13.53125 -1.05938,0.70222 -0.31713,1.49767 0.65625,1.625 11.28861,1.47164 22.59138,1.94146 33.8125,1.09375 7.17778,-1.56672 11.68958,-18.60081 18.875,-20.03125 -6.64423,-0.67454 -12.85255,-13.80648 -22.5,-14.875 -4.19591,-0.46751 -15.74921,-0.2089 -25.46875,-1.40625 z" id="path162" style="fill:#ffffff;fill-opacity:1;fill-rule:nonzero;stroke:none"/>
  </g>
</svg>