<svg width="24" height="26" viewBox="0 0 24 26" fill="none" xmlns="http://www.w3.org/2000/svg">
<path fill-rule="evenodd" clip-rule="evenodd" d="M2 13.4568C2 7.68681 6.47 3.00391 11.99 3.00391C17.52 3.00391 22 7.68681 22 13.4568C22 19.2268 17.52 23.9097 11.99 23.9097C6.47 23.9097 2 19.2268 2 13.4568ZM15.97 9.27566H18.92C17.96 7.55093 16.43 6.21295 14.59 5.55442C15.19 6.71469 15.65 7.96904 15.97 9.27566ZM12 5.1363C12.83 6.39065 13.48 7.78089 13.91 9.27566H10.09C10.52 7.78089 11.17 6.39065 12 5.1363ZM4 13.4568C4 14.1781 4.1 14.8784 4.26 15.5474H7.64C7.56 14.8575 7.5 14.1676 7.5 13.4568C7.5 12.746 7.56 12.0561 7.64 11.3662H4.26C4.1 12.0352 4 12.7356 4 13.4568ZM5.08 17.638H8.03C8.35 18.9446 8.81 20.199 9.41 21.3592C7.57 20.7007 6.04 19.3732 5.08 17.638ZM5.08 9.27566H8.03C8.35 7.96904 8.81 6.71469 9.41 5.55442C7.57 6.21295 6.04 7.54047 5.08 9.27566ZM12 21.7773C11.17 20.523 10.52 19.1328 10.09 17.638H13.91C13.48 19.1328 12.83 20.523 12 21.7773ZM9.5 13.4568C9.5 14.1676 9.57 14.8575 9.66 15.5474H14.34C14.43 14.8575 14.5 14.1676 14.5 13.4568C14.5 12.746 14.43 12.0457 14.34 11.3662H9.66C9.57 12.0457 9.5 12.746 9.5 13.4568ZM14.59 21.3592C15.19 20.199 15.65 18.9446 15.97 17.638H18.92C17.96 19.3627 16.43 20.7007 14.59 21.3592ZM16.5 13.4568C16.5 14.1676 16.44 14.8575 16.36 15.5474H19.74C19.9 14.8784 20 14.1781 20 13.4568C20 12.7356 19.9 12.0352 19.74 11.3662H16.36C16.44 12.0561 16.5 12.746 16.5 13.4568Z" fill="#9EF2E6"/>
</svg>
