<svg width="168" height="39" viewBox="0 0 168 39" fill="none" xmlns="http://www.w3.org/2000/svg">
<path d="M14.5847 10.4341C12.9997 11.6307 11.3877 13.0319 9.81611 14.6069C2.79307 21.6452 -0.765243 29.4904 1.8684 32.1298C4.50203 34.769 12.3303 31.2031 19.3534 24.1648C20.925 22.5898 22.3231 20.9743 23.5172 19.3859" stroke="white" stroke-width="2" stroke-linecap="round" stroke-linejoin="round"/>
<path d="M23.5172 19.3852C27.659 24.895 29.3455 30.0803 27.3011 32.1291C24.6674 34.7685 16.8391 31.2023 9.81611 24.1641C2.79307 17.1259 -0.765243 9.28062 1.8684 6.64128C3.91267 4.59257 9.08681 6.28268 14.5847 10.4334" stroke="white" stroke-width="2" stroke-linecap="round" stroke-linejoin="round"/>
<path d="M13.3501 19.3861C13.3501 20.0696 13.903 20.6237 14.5851 20.6237C15.2671 20.6237 15.8201 20.0696 15.8201 19.3861C15.8201 18.7025 15.2671 18.1484 14.5851 18.1484C13.903 18.1484 13.3501 18.7025 13.3501 19.3861Z" stroke="white" stroke-width="2" stroke-linecap="round" stroke-linejoin="round"/>
<path d="M19.5482 8.60877C18.7723 8.4735 18.7723 7.35726 19.5482 7.22199C22.3592 6.7319 24.5948 4.58626 25.2049 1.79307L25.2518 1.57896C25.4195 0.810462 26.5115 0.80568 26.6861 1.57268L26.7429 1.82219C27.3755 4.6022 29.6118 6.72972 32.4149 7.21845C33.1949 7.35441 33.1949 8.47634 32.4149 8.61231C29.6118 9.10104 27.3755 11.2286 26.7429 14.0086L26.6861 14.2581C26.5115 15.0251 25.4195 15.0203 25.2518 14.2518L25.2049 14.0377C24.5948 11.2445 22.3592 9.09886 19.5482 8.60877Z" stroke="white" stroke-width="2" stroke-linecap="round" stroke-linejoin="round"/>
<path d="M56.7273 13.5455C56.5985 12.25 56.0265 11.2197 55.0114 10.4545C53.9962 9.68939 52.7197 9.30682 51.1818 9.30682C50.0985 9.30682 49.1439 9.49242 48.3182 9.86364C47.5 10.2348 46.8561 10.75 46.3864 11.4091C45.9242 12.0606 45.6932 12.803 45.6932 13.6364C45.6932 14.25 45.8258 14.7879 46.0909 15.25C46.3561 15.7121 46.7121 16.1098 47.1591 16.4432C47.6136 16.7689 48.1136 17.0492 48.6591 17.2841C49.2121 17.5189 49.7689 17.7159 50.3295 17.875L52.7841 18.5795C53.5265 18.7841 54.2689 19.0455 55.0114 19.3636C55.7538 19.6818 56.4318 20.0833 57.0455 20.5682C57.6667 21.0455 58.1629 21.6326 58.5341 22.3295C58.9129 23.0189 59.1023 23.8485 59.1023 24.8182C59.1023 26.0606 58.7803 27.178 58.1364 28.1705C57.4924 29.1629 56.5682 29.9508 55.3636 30.5341C54.1591 31.1098 52.7159 31.3977 51.0341 31.3977C49.4508 31.3977 48.0758 31.1364 46.9091 30.6136C45.7424 30.0833 44.8258 29.3523 44.1591 28.4205C43.4924 27.4886 43.1174 26.4091 43.0341 25.1818H45.2159C45.2917 26.0985 45.5947 26.875 46.125 27.5114C46.6553 28.1477 47.3447 28.6326 48.1932 28.9659C49.0417 29.2917 49.9886 29.4545 51.0341 29.4545C52.1932 29.4545 53.2235 29.2614 54.125 28.875C55.0341 28.4811 55.7462 27.9356 56.2614 27.2386C56.7841 26.5341 57.0455 25.7159 57.0455 24.7841C57.0455 23.9962 56.8409 23.3371 56.4318 22.8068C56.0227 22.2689 55.4508 21.8182 54.7159 21.4545C53.9886 21.0909 53.1439 20.7689 52.1818 20.4886L49.3977 19.6705C47.572 19.125 46.1553 18.3712 45.1477 17.4091C44.1402 16.447 43.6364 15.2197 43.6364 13.7273C43.6364 12.4773 43.9697 11.3788 44.6364 10.4318C45.3106 9.47727 46.2197 8.73485 47.3636 8.20454C48.5152 7.66667 49.8068 7.39773 51.2386 7.39773C52.6856 7.39773 53.9659 7.66288 55.0795 8.19318C56.1932 8.72348 57.0758 9.45454 57.7273 10.3864C58.3864 11.3106 58.7386 12.3636 58.7841 13.5455H56.7273ZM70.5795 31.3636C69.072 31.3636 67.7386 30.9811 66.5795 30.2159C65.428 29.4508 64.5265 28.3939 63.875 27.0455C63.2235 25.6894 62.8977 24.125 62.8977 22.3523C62.8977 20.5644 63.2235 18.9924 63.875 17.6364C64.5265 16.2727 65.428 15.2121 66.5795 14.4545C67.7386 13.6894 69.072 13.3068 70.5795 13.3068C72.0871 13.3068 73.4167 13.6894 74.5682 14.4545C75.7197 15.2197 76.6212 16.2803 77.2727 17.6364C77.9318 18.9924 78.2614 20.5644 78.2614 22.3523C78.2614 24.125 77.9356 25.6894 77.2841 27.0455C76.6326 28.3939 75.7273 29.4508 74.5682 30.2159C73.4167 30.9811 72.0871 31.3636 70.5795 31.3636ZM70.5795 29.5114C71.7917 29.5114 72.8182 29.1856 73.6591 28.5341C74.5 27.8826 75.1364 27.0152 75.5682 25.9318C76.0076 24.8485 76.2273 23.6553 76.2273 22.3523C76.2273 21.0492 76.0076 19.8523 75.5682 18.7614C75.1364 17.6705 74.5 16.7955 73.6591 16.1364C72.8182 15.4773 71.7917 15.1477 70.5795 15.1477C69.375 15.1477 68.3485 15.4773 67.5 16.1364C66.6591 16.7955 66.0189 17.6705 65.5795 18.7614C65.1477 19.8523 64.9318 21.0492 64.9318 22.3523C64.9318 23.6553 65.1477 24.8485 65.5795 25.9318C66.0189 27.0152 66.6591 27.8826 67.5 28.5341C68.3409 29.1856 69.3674 29.5114 70.5795 29.5114ZM85.4403 7.72727L91.4972 26.0455H91.7358L97.7812 7.72727H102.418L94.2131 31H89.0085L80.8153 7.72727H85.4403ZM105.301 31V13.5455H109.415V31H105.301ZM107.369 11.0682C106.718 11.0682 106.157 10.8523 105.688 10.4205C105.218 9.98106 104.983 9.45454 104.983 8.84091C104.983 8.2197 105.218 7.69318 105.688 7.26136C106.157 6.82197 106.718 6.60227 107.369 6.60227C108.028 6.60227 108.589 6.82197 109.051 7.26136C109.521 7.69318 109.756 8.2197 109.756 8.84091C109.756 9.45454 109.521 9.98106 109.051 10.4205C108.589 10.8523 108.028 11.0682 107.369 11.0682ZM127.44 18.1591L123.69 18.5682C123.584 18.1894 123.399 17.8333 123.134 17.5C122.876 17.1667 122.527 16.8977 122.088 16.6932C121.649 16.4886 121.111 16.3864 120.474 16.3864C119.618 16.3864 118.899 16.572 118.315 16.9432C117.74 17.3144 117.455 17.7955 117.463 18.3864C117.455 18.8939 117.641 19.3068 118.02 19.625C118.406 19.9432 119.043 20.2045 119.929 20.4091L122.906 21.0455C124.558 21.4015 125.785 21.9659 126.588 22.7386C127.399 23.5114 127.808 24.5227 127.815 25.7727C127.808 26.8712 127.486 27.8409 126.849 28.6818C126.221 29.5152 125.346 30.1667 124.224 30.6364C123.103 31.1061 121.815 31.3409 120.361 31.3409C118.224 31.3409 116.505 30.8939 115.202 30C113.899 29.0985 113.122 27.8447 112.872 26.2386L116.884 25.8523C117.065 26.6402 117.452 27.2348 118.043 27.6364C118.634 28.0379 119.402 28.2386 120.349 28.2386C121.327 28.2386 122.111 28.0379 122.702 27.6364C123.3 27.2348 123.599 26.7386 123.599 26.1477C123.599 25.6477 123.406 25.2348 123.02 24.9091C122.641 24.5833 122.05 24.3333 121.247 24.1591L118.27 23.5341C116.596 23.1856 115.357 22.5985 114.554 21.7727C113.751 20.9394 113.353 19.8864 113.361 18.6136C113.353 17.5379 113.645 16.6061 114.236 15.8182C114.834 15.0227 115.664 14.4091 116.724 13.9773C117.793 13.5379 119.024 13.3182 120.418 13.3182C122.463 13.3182 124.073 13.7538 125.247 14.625C126.429 15.4962 127.16 16.6742 127.44 18.1591ZM142.332 23.6591V13.5455H146.446V31H142.457V27.8977H142.276C141.882 28.875 141.234 29.6742 140.332 30.2955C139.438 30.9167 138.336 31.2273 137.026 31.2273C135.882 31.2273 134.87 30.9735 133.991 30.4659C133.12 29.9508 132.438 29.2045 131.946 28.2273C131.454 27.2424 131.207 26.053 131.207 24.6591V13.5455H135.321V24.0227C135.321 25.1288 135.624 26.0076 136.23 26.6591C136.836 27.3106 137.632 27.6364 138.616 27.6364C139.223 27.6364 139.81 27.4886 140.378 27.1932C140.946 26.8977 141.412 26.4583 141.776 25.875C142.147 25.2841 142.332 24.5455 142.332 23.6591Z" fill="white"/>
<path d="M159 19.3333V22M159 22V24.6667M159 22H161.667M159 22H156.333M167 22C167 23.0506 166.793 24.0909 166.391 25.0615C165.989 26.0321 165.4 26.914 164.657 27.6569C163.914 28.3997 163.032 28.989 162.061 29.391C161.091 29.7931 160.051 30 159 30C157.949 30 156.909 29.7931 155.939 29.391C154.968 28.989 154.086 28.3997 153.343 27.6569C152.6 26.914 152.011 26.0321 151.609 25.0615C151.207 24.0909 151 23.0506 151 22C151 19.8783 151.843 17.8434 153.343 16.3431C154.843 14.8429 156.878 14 159 14C161.122 14 163.157 14.8429 164.657 16.3431C166.157 17.8434 167 19.8783 167 22Z" stroke="white" stroke-width="2" stroke-linecap="round" stroke-linejoin="round"/>
</svg>
