<?xml version="1.0" encoding="UTF-8"?>
<svg id="Calque_1" data-name="Calque 1" xmlns="http://www.w3.org/2000/svg" version="1.1" viewBox="0 0 2737.6 1244.2">
  <defs>
    <style>
      .cls-1 {
        fill: #fff;
        stroke-width: 0px;
      }
    </style>
  </defs>
  <g>
    <path class="cls-1" d="M1338.3,289.6l.2,30.9c7.1-2,14.7-3.6,22.3-4.5v-38c0-9.4,6-17.5,15.5-17.5s15.6,8.1,15.6,17.5v38c7.6,1,15.2,2.5,22.3,4.5l.2-30.9c0-9.3,4.6-14.1,11.4-14.1s4.1.4,4.1.4v-13.8c-8-6.6-32.6-24.7-40.6-72.8h-25.9c-8.1,48.2-32.7,66.2-40.6,72.8v13.8s2-.4,4.1-.4c6.8,0,11.4,4.8,11.4,14.1h0Z"/>
    <circle class="cls-1" cx="1376.5" cy="166" r="13.2" transform="translate(1113.2 1527.3) rotate(-85.9)"/>
    <polygon class="cls-1" points="1376.4 483.7 1123.6 598.1 1124.7 603.5 1628 603.5 1629.2 598.1 1376.4 483.7"/>
    <path class="cls-1" d="M1563.9,545.4c-2.7-60.2-34.6-112.9-82.1-144.7-14.1-9.4-29.5-17-45.9-22.4v-35.2c-15.9-7.9-38.8-13.5-59.5-13.7-20.8.1-43.6,5.7-59.5,13.7v35.2c-12.8,4.2-24.9,9.7-36.3,16.4-52.7,30.9-88.7,86.5-91.6,150.6l187.5-85.7,187.5,85.7h0Z"/>
  </g>
  <g>
    <path class="cls-1" d="M735.2,953.8c0,12.5-5.7,18-15.7,18s-16.4-6.7-16.4-18.6v-43h-14.1v44.9c0,18.9,11.6,29.2,30.1,29.2s30.2-10.8,30.2-30.4v-43.6h-14v43.6h0Z"/>
    <polygon class="cls-1" points="838.3 962.8 804.1 910.2 788.7 910.2 788.7 982.5 802.1 982.5 802.1 930 836.7 982.5 851.7 982.5 851.7 910.2 838.3 910.2 838.3 962.8"/>
    <rect class="cls-1" x="891.8" y="910.2" width="14" height="72.3"/>
    <polygon class="cls-1" points="972 968.3 952.2 910.2 937.7 910.2 963.3 982.5 980.5 982.5 1006.4 910.2 991.8 910.2 972 968.3"/>
    <polygon class="cls-1" points="1038.2 982.5 1087.5 982.5 1087.5 970.6 1052.1 970.6 1052.1 952.2 1081.1 952.2 1081.1 940.3 1052.1 940.3 1052.1 922.1 1087.5 922.1 1087.5 910.2 1038.2 910.2 1038.2 982.5"/>
    <path class="cls-1" d="M1177.6,932.2c0-13.3-9.7-22-28-22h-25.3v72.3h14.1v-25.8l10.4-.7,16.1,26.5h16.1l-19-29.5c9.8-3.3,15.6-10.5,15.6-20.8ZM1148.8,945.4l-10.5.2v-23.6h9.1c10.1,0,15.7,3.6,15.7,11.1s-5.7,11.8-14.3,12.3Z"/>
    <path class="cls-1" d="M1242.1,939.9c-9.9-2.7-16.4-5-16.4-10.9s3.7-8.6,12.1-8.6,14.9,2.4,21.3,6.2l3.5-11.9c-6.9-3.9-15-6.4-24.9-6.4-16.1,0-25.9,8.6-25.9,21.4s12,18.9,22.4,21.8c10.6,2.9,16.1,5.1,16.1,11.1s-5.6,9.6-13.4,9.6-16.3-2.9-23-6.9l-3.2,12.1c6.8,4.2,16.4,6.7,26,6.7,17,0,27.5-9.4,27.5-22.6s-11.2-18.7-22.1-21.7h0Z"/>
    <rect class="cls-1" x="1300.5" y="910.2" width="14" height="72.3"/>
    <polygon class="cls-1" points="1348.7 922.6 1372.8 922.6 1372.8 982.5 1386.8 982.5 1386.8 922.6 1411 922.6 1411 910.2 1348.7 910.2 1348.7 922.6"/>
    <polygon class="cls-1" points="1485.9 896 1471.3 896 1464 910.2 1444.9 910.2 1444.9 982.5 1494.2 982.5 1494.2 970.6 1458.8 970.6 1458.8 952.2 1487.8 952.2 1487.8 940.3 1458.8 940.3 1458.8 922.1 1494.2 922.1 1494.2 910.2 1473.8 910.2 1485.9 896"/>
    <path class="cls-1" d="M1602.7,910.2h-23.4v72.3h14.1v-22.4h8.2c19.4-.2,30.9-9,30.9-25.7s-9.8-24.2-29.8-24.2h0ZM1602.2,948.2l-9,.2v-26.4h8.6c11.1,0,16.7,4.4,16.7,12.8s-5.4,13.1-16.2,13.3h0Z"/>
    <path class="cls-1" d="M1682.2,910.2l-26.4,72.3h14.2l5.9-17.1h29.2l6,17.1h14.2l-26-72.3h-17.1ZM1679.7,953.7l11-31.3,10.9,31.3h-21.9,0Z"/>
    <path class="cls-1" d="M1810.6,932.2c0-13.3-9.7-22-28-22h-25.3v72.3h14.1v-25.8l10.4-.7,16.1,26.5h16.1l-19-29.5c9.8-3.3,15.6-10.5,15.6-20.8h0ZM1781.8,945.4l-10.5.2v-23.6h9.1c10.1,0,15.7,3.6,15.7,11.1s-5.7,11.8-14.3,12.3Z"/>
    <rect class="cls-1" x="1847.9" y="910.2" width="14" height="72.3"/>
    <path class="cls-1" d="M1928.8,939.9c-9.9-2.7-16.4-5-16.4-10.9s3.7-8.6,12.1-8.6,14.9,2.4,21.3,6.2l3.5-11.9c-6.9-3.9-15-6.4-24.9-6.4-16.1,0-25.9,8.6-25.9,21.4s12,18.9,22.4,21.8c10.6,2.9,16.1,5.1,16.1,11.1s-5.6,9.6-13.4,9.6-16.3-2.9-23-6.9l-3.2,12.1c6.8,4.2,16.4,6.7,26,6.7,17,0,27.5-9.4,27.5-22.6s-11.2-18.7-22.1-21.7h0Z"/>
    <polygon class="cls-1" points="2046.4 970.6 2046.4 909.5 2015.5 916.9 2015.8 928.6 2033.1 924.4 2033.1 970.6 2014.5 970.6 2014.5 982.5 2063.8 982.5 2063.8 970.6 2046.4 970.6"/>
  </g>
  <g>
    <path class="cls-1" d="M603,704.5c11.7.7,16.3,4.8,16.3,14.4v69.7c.1,0-67.2-92.1-67.2-92.1h-41.7v2l16.7,20.5v91.6c0,13.9-3.9,17.3-12.7,18.6-7.8-1.7-11.7-7.3-15-15.5l-45.2-117.2h-16.3l-45.5,112.8c-2.9,8.1-6.4,19-23.3,20.5v7.9h50v-7.9c-9.8-.5-17.9-5.1-14.4-14.3l7.8-20.1h48.6l8.6,23.4c2.5,7.2-2.4,9.2-13.9,11.1v7.9s54.7,0,54.7,0h47.8v-7.9c-11.7-1-16.7-3.2-16.7-19.1,0,0,0-54,0-80l78.5,107h14v-118.7c.1-9.6,4.5-13.8,16.9-14.4v-8.1h-47.9v8.1h0ZM417.2,782.3l20.1-50.9,18.8,50.9h-38.9,0Z"/>
    <path class="cls-1" d="M1302.9,704.5c11.7.7,16.3,4.8,16.3,14.4v67.4c.1,0-67.2-89.9-67.2-89.9h-41.7v2l16.7,20.5v91.7c0,15.8-5.1,18-16.7,19.1v7.9h47.8v-7.9c-11.7-1-16.7-3.2-16.7-19.1v-80l78.5,107h14v-118.7c.1-9.6,4.5-13.8,16.9-14.4v-8.1h-47.9v8.1h0Z"/>
    <path class="cls-1" d="M323.4,810.5v-103.2s15,0,15,0c15.1,0,24.9,9.1,24.9,29.9s-15.5,30.6-29.6,31.1v9.9h1.1c34,0,59.1-15.2,59.1-41.7s-21.2-40.1-56.7-40.1h-58.9v8.2c12.2,1.2,16.5,4.1,16.5,19.4v86.6c0,15.8-4,17.4-16.7,19.1v7.9h62.2v-7.9c-12.1-1-16.9-3.2-16.9-19.1h0Z"/>
    <path class="cls-1" d="M1471.6,756.3c-16.7-10.2-34.8-17.7-34.8-32.9s10.9-18.3,19.6-18.3c15.7,0,26.3,11.1,33.5,27.8h8.7l-3.9-38.4-3.2-1.2c-3.3,3.2-6,4.5-9.6,4.5-7.2,0-13.7-4.2-27.2-4.2-23,0-47.6,11-47.6,36.9s21.8,35.1,40.8,46.8c13.2,8.2,25.7,16.2,25.7,30.3s-8.3,21.7-25.6,21.7-25.8-15-33.8-35.8h-8.6l3.7,44.3,3.4,1.4c3.1-2.3,6.3-3.5,10.5-3.5,7.9,0,13.2,4.4,29.2,4.4s50.8-10.1,50.8-40.1-14-32.7-31.9-43.7h0Z"/>
    <path class="cls-1" d="M661.2,696.3l-5.4,37.3h9.3s8.6-17.1,8.6-17.1c3.1-6.1,10.2-9,17.8-9h11.8s0,102.9,0,102.9c0,11.7-1.5,18.3-17.8,19.1v7.9h64.1v-7.9c-16.2-.8-17.8-7.4-17.8-19.1v-102.9s11.7,0,11.7,0c7.7,0,14.7,2.9,17.8,9l8.6,17h9.3s-5.4-37.3-5.4-37.3h-112.7Z"/>
    <path class="cls-1" d="M1137.7,694.1c-41.7,0-68,27.2-68,72.7,0,45.5,26.3,72.7,68,72.7s68-27.2,68-72.7c0-45.5-26.3-72.7-68-72.7ZM1137.7,830c-23.6,0-37.6-24.5-37.6-63.2,0-38.7,14-63.2,37.6-63.2s37.6,24.4,37.7,63.2c0,38.7-14,63.2-37.7,63.2Z"/>
    <path class="cls-1" d="M1583.2,694.1c-41.7,0-68,27.2-68,72.7,0,45.5,26.3,72.7,68,72.7s68-27.2,68-72.7c0-45.5-26.3-72.7-68-72.7ZM1583.2,830c-23.6,0-37.6-24.5-37.7-63.2,0-38.7,14-63.2,37.7-63.2s37.6,24.4,37.6,63.2c0,38.7-14,63.2-37.6,63.2Z"/>
    <path class="cls-1" d="M1990.6,694.1c-41.7,0-68,27.2-68,72.7,0,45.5,26.3,72.7,68,72.7s68-27.2,68-72.7c0-45.5-26.3-72.7-68-72.7h0ZM1990.6,830c-23.6,0-37.6-24.5-37.6-63.2,0-38.7,14-63.2,37.6-63.2s37.6,24.4,37.7,63.2c0,38.7-14,63.2-37.7,63.2Z"/>
    <path class="cls-1" d="M872.6,704.5c12.6.8,16.7,5.7,16.7,14.3v39.3c0,0-59.5,0-59.5,0v-39.3c0-8.6,4.2-13.5,16.8-14.3v-8.2h-62v8.2c9.7,1.2,16.6,4.2,16.6,14.4v95.5c0,9.2-4.2,13.7-13.7,14.8-.8,0-1.7.2-2.8.2v8h61.6v-7.9c-1.7-.3-3.3-.5-4.8-.9-8.2-1.7-11.5-5.3-11.6-13.8v-43.5h59.4v43.5c-.1,8.5-3.4,12.1-11.6,13.8-1.5.3-3.1.6-4.8.9v7.9h61.6v-8c-1.1,0-1.9-.1-2.8-.2-9.5-1.1-13.7-5.7-13.7-14.8v-95.5c0-10.2,6.9-13.2,16.6-14.4v-8.2h-62v8.2h0Z"/>
    <path class="cls-1" d="M1041.7,819.8c-3.2,4.6-8.2,6.9-14.3,6.9h-22.9c-8.4,0-11.5-4-11.5-13.9v-41.5h25.7c4.7,0,7.4,3,8.6,7.5l2.3,8.7h8.4v-45.7h-8.4l-2.4,9.1c-1.3,4.1-4.2,7.1-8.5,7.3h-25.7v-51.4h27.1c7.3.1,13.1,3.5,17.4,9.2l9.2,13.1h8.3l-4.5-32.7h-102.8v8c13.9.6,16.6,7.3,16.6,19.2v87c0,14.7-2.4,16.5-16.5,19v8h108.2l6.8-35.2h-9.3l-11.9,17.5h0Z"/>
    <polygon class="cls-1" points="1035.9 669.9 1035.9 668.5 1027.7 647.9 1026.2 647.9 983.3 673.6 985.9 680.7 1035.9 669.9"/>
    <path class="cls-1" d="M2155.7,704.5c11.7.7,16.3,4.8,16.3,14.4v69.6c.1,0-67.2-92.1-67.2-92.1h-41.7v2l16.7,20.6v91.6c0,15.8-5.1,18-16.7,19.1v7.9h47.8v-7.9c-11.7-1-16.7-3.2-16.7-19.1v-80l78.5,107h14v-118.7c.1-9.6,4.5-13.8,16.9-14.4v-8.1h-47.9v8.1h0Z"/>
    <path class="cls-1" d="M2302.6,704.5c11.7.7,16.3,4.8,16.3,14.4v69.6c.1,0-67.2-92.1-67.2-92.1h-41.7v2l16.7,20.6v91.6c0,15.8-5.1,18-16.7,19.1v7.9h47.8v-7.9c-11.7-1-16.7-3.2-16.7-19.1v-80l78.5,107h14v-118.7c.1-9.6,4.5-13.8,16.9-14.4v-8.1h-47.9v8.1h0Z"/>
    <path class="cls-1" d="M2465.4,802.3l-11.9,17.5c-3.2,4.6-8.1,6.9-14.3,6.9h-22.9c-8.4,0-11.5-4-11.5-13.9v-41.5h25.7c4.7,0,7.4,3,8.6,7.5l2.3,8.7h8.4v-45.7h-8.4l-2.4,9.1c-1.3,4.1-4.1,7.1-8.5,7.3h-25.7l-.2-51.4h27.1c7.3.1,13.1,3.5,17.4,9.2l9.2,13.1h8.3l-4.5-32.7h-102.8v8c13.9.6,16.6,7.3,16.6,19.2,0,0,.2,57.7.2,87s-2.4,16.5-16.5,19v8h108.2l6.8-35.2h-9.3Z"/>
    <path class="cls-1" d="M1877.2,763.6c20-3.6,27.6-16.3,27.6-29.8,0-29.9-23.8-37.5-59.5-37.5h-55.2v8.2c10.1,1,16.3,3.1,16.3,17.3v88.7c0,12.9-2.5,16.5-14,18.5-10.1-.9-12.8-2.8-16.1-8.5l-31.2-49c13.7-5,28.4-15.9,28.4-36.3s-21.1-38.8-56.4-38.8h-60.2v8.2c12.2,1.2,16.5,4.1,16.5,19.4v86.6c0,15.8-4.1,17.4-16.7,19.1v7.9h62.2v-7.9c-12.1-1-16.9-3.2-16.9-19.1v-103.6h17.2c11.3,0,23.7,8.5,23.7,28.5s-16,32.2-29.3,32.2h-1.4v10.4c2.5.2,4.8,1.5,6.1,3.6l29.7,49.7c2.1,3.7,5.7,6.2,11,6.2h93.7c39.7,0,57.5-15.5,57.5-37.5s-16-32.1-33.1-36.4h0ZM1835.4,706.7h10.6c17.3,0,28.3,6.6,28.3,26.3s-7.4,26.1-29.1,26.1h-9.9v-52.4ZM1850.8,826.7c-9.5,0-15.6-.5-15.6-16.3v-41.5h13.1c21.1,0,31,8.8,31,29.6s-9.5,28.1-28.5,28.1Z"/>
  </g>
</svg>