<svg xmlns="http://www.w3.org/2000/svg" width="125" height="26" viewBox="0 0 125 26" fill="none">
  <path d="M13.6932 7.54523C13.5644 6.24978 12.9924 5.21947 11.9773 4.45432C10.9621 3.68917 9.68561 3.3066 8.14773 3.3066C7.06439 3.3066 6.10985 3.4922 5.28409 3.86341C4.46591 4.23463 3.82197 4.74978 3.35227 5.40887C2.89015 6.06038 2.65909 6.80281 2.65909 7.63614C2.65909 8.24978 2.79167 8.78766 3.05682 9.24978C3.32197 9.7119 3.67803 10.1096 4.125 10.443C4.57955 10.7687 5.07955 11.049 5.625 11.2839C6.17803 11.5187 6.73485 11.7157 7.29545 11.8748L9.75 12.5793C10.4924 12.7839 11.2348 13.0452 11.9773 13.3634C12.7197 13.6816 13.3977 14.0831 14.0114 14.568C14.6326 15.0452 15.1288 15.6324 15.5 16.3293C15.8788 17.0187 16.0682 17.8483 16.0682 18.818C16.0682 20.0604 15.7462 21.1778 15.1023 22.1702C14.4583 23.1627 13.5341 23.9505 12.3295 24.5339C11.125 25.1096 9.68182 25.3975 8 25.3975C6.41667 25.3975 5.04167 25.1361 3.875 24.6134C2.70833 24.0831 1.79167 23.3521 1.125 22.4202C0.458333 21.4884 0.0833333 20.4089 0 19.1816H2.18182C2.25758 20.0983 2.56061 20.8748 3.09091 21.5111C3.62121 22.1475 4.31061 22.6324 5.15909 22.9657C6.00758 23.2914 6.95455 23.4543 8 23.4543C9.15909 23.4543 10.1894 23.2611 11.0909 22.8748C12 22.4808 12.7121 21.9354 13.2273 21.2384C13.75 20.5339 14.0114 19.7157 14.0114 18.7839C14.0114 17.996 13.8068 17.3369 13.3977 16.8066C12.9886 16.2687 12.4167 15.818 11.6818 15.4543C10.9545 15.0907 10.1098 14.7687 9.14773 14.4884L6.36364 13.6702C4.53788 13.1248 3.12121 12.371 2.11364 11.4089C1.10606 10.4467 0.602273 9.21948 0.602273 7.72705C0.602273 6.47705 0.935606 5.37857 1.60227 4.4316C2.27652 3.47705 3.18561 2.73463 4.32955 2.20432C5.48106 1.66644 6.77273 1.3975 8.20455 1.3975C9.65152 1.3975 10.9318 1.66266 12.0455 2.19296C13.1591 2.72326 14.0417 3.45432 14.6932 4.38614C15.3523 5.31038 15.7045 6.36341 15.75 7.54523H13.6932Z" fill="white"/>
  <path d="M27.5455 25.3634C26.0379 25.3634 24.7045 24.9808 23.5455 24.2157C22.3939 23.4505 21.4924 22.3937 20.8409 21.0452C20.1894 19.6892 19.8636 18.1248 19.8636 16.3521C19.8636 14.5642 20.1894 12.9922 20.8409 11.6361C21.4924 10.2725 22.3939 9.2119 23.5455 8.45432C24.7045 7.68917 26.0379 7.3066 27.5455 7.3066C29.053 7.3066 30.3826 7.68917 31.5341 8.45432C32.6856 9.21947 33.5871 10.2801 34.2386 11.6361C34.8977 12.9922 35.2273 14.5642 35.2273 16.3521C35.2273 18.1248 34.9015 19.6892 34.25 21.0452C33.5985 22.3937 32.6932 23.4505 31.5341 24.2157C30.3826 24.9808 29.053 25.3634 27.5455 25.3634ZM27.5455 23.5111C28.7576 23.5111 29.7841 23.1854 30.625 22.5339C31.4659 21.8824 32.1023 21.0149 32.5341 19.9316C32.9735 18.8483 33.1932 17.6551 33.1932 16.3521C33.1932 15.049 32.9735 13.8521 32.5341 12.7611C32.1023 11.6702 31.4659 10.7952 30.625 10.1361C29.7841 9.47705 28.7576 9.14751 27.5455 9.14751C26.3409 9.14751 25.3144 9.47705 24.4659 10.1361C23.625 10.7952 22.9848 11.6702 22.5455 12.7611C22.1136 13.8521 21.8977 15.049 21.8977 16.3521C21.8977 17.6551 22.1136 18.8483 22.5455 19.9316C22.9848 21.0149 23.625 21.8824 24.4659 22.5339C25.3068 23.1854 26.3333 23.5111 27.5455 23.5111Z" fill="white"/>
  <path d="M42.4062 1.72705L48.4631 20.0452H48.7017L54.7472 1.72705H59.3835L51.179 24.9998H45.9744L37.7812 1.72705H42.4062Z" fill="white"/>
  <path d="M62.267 24.9998V7.54523H66.3807V24.9998H62.267ZM64.3352 5.06796C63.6837 5.06796 63.1231 4.85205 62.6534 4.42023C62.1837 3.98084 61.9489 3.45432 61.9489 2.84069C61.9489 2.21947 62.1837 1.69296 62.6534 1.26114C63.1231 0.821747 63.6837 0.602051 64.3352 0.602051C64.9943 0.602051 65.5549 0.821747 66.017 1.26114C66.4867 1.69296 66.7216 2.21947 66.7216 2.84069C66.7216 3.45432 66.4867 3.98084 66.017 4.42023C65.5549 4.85205 64.9943 5.06796 64.3352 5.06796Z" fill="white"/>
  <path d="M84.4062 12.1589L80.6562 12.568C80.5502 12.1892 80.3646 11.8331 80.0994 11.4998C79.8419 11.1664 79.4934 10.8975 79.054 10.693C78.6146 10.4884 78.0767 10.3861 77.4403 10.3861C76.5843 10.3861 75.8646 10.5717 75.2812 10.943C74.7055 11.3142 74.4214 11.7952 74.429 12.3861C74.4214 12.8937 74.607 13.3066 74.9858 13.6248C75.3722 13.943 76.0085 14.2043 76.8949 14.4089L79.8722 15.0452C81.5237 15.4013 82.7509 15.9657 83.554 16.7384C84.3646 17.5111 84.7737 18.5225 84.7812 19.7725C84.7737 20.871 84.4517 21.8407 83.8153 22.6816C83.1866 23.5149 82.3116 24.1664 81.1903 24.6361C80.0691 25.1058 78.7812 25.3407 77.3267 25.3407C75.1903 25.3407 73.4706 24.8937 72.1676 23.9998C70.8646 23.0983 70.0881 21.8445 69.8381 20.2384L73.8494 19.8521C74.0312 20.6399 74.4176 21.2346 75.0085 21.6361C75.5994 22.0377 76.3684 22.2384 77.3153 22.2384C78.2926 22.2384 79.0767 22.0377 79.6676 21.6361C80.2661 21.2346 80.5653 20.7384 80.5653 20.1475C80.5653 19.6475 80.3722 19.2346 79.9858 18.9089C79.607 18.5831 79.0161 18.3331 78.2131 18.1589L75.2358 17.5339C73.5616 17.1854 72.3229 16.5983 71.5199 15.7725C70.7169 14.9392 70.3191 13.8861 70.3267 12.6134C70.3191 11.5377 70.6108 10.6058 71.2017 9.81796C71.8002 9.02251 72.6297 8.40887 73.6903 7.97705C74.7585 7.53766 75.9896 7.31796 77.3835 7.31796C79.429 7.31796 81.0388 7.75357 82.2131 8.62478C83.3949 9.49599 84.1259 10.674 84.4062 12.1589Z" fill="white"/>
  <path d="M99.2983 17.6589V7.54523H103.412V24.9998H99.4233V21.8975H99.2415C98.8475 22.8748 98.1998 23.674 97.2983 24.2952C96.4044 24.9164 95.3021 25.2271 93.9915 25.2271C92.8475 25.2271 91.8362 24.9733 90.9574 24.4657C90.0862 23.9505 89.4044 23.2043 88.9119 22.2271C88.4195 21.2422 88.1733 20.0528 88.1733 18.6589V7.54523H92.2869V18.0225C92.2869 19.1286 92.59 20.0074 93.196 20.6589C93.8021 21.3104 94.5975 21.6361 95.5824 21.6361C96.1885 21.6361 96.7756 21.4884 97.3438 21.193C97.9119 20.8975 98.3778 20.4581 98.7415 19.8748C99.1127 19.2839 99.2983 18.5452 99.2983 17.6589Z" fill="white"/>
  <path d="M115.966 13.3333V16M115.966 16V18.6667M115.966 16H118.632M115.966 16H113.299M123.966 16C123.966 17.0506 123.759 18.0909 123.357 19.0615C122.955 20.0321 122.366 20.914 121.623 21.6569C120.88 22.3997 119.998 22.989 119.027 23.391C118.057 23.7931 117.016 24 115.966 24C114.915 24 113.875 23.7931 112.904 23.391C111.934 22.989 111.052 22.3997 110.309 21.6569C109.566 20.914 108.977 20.0321 108.575 19.0615C108.173 18.0909 107.966 17.0506 107.966 16C107.966 13.8783 108.809 11.8434 110.309 10.3431C111.809 8.84285 113.844 8 115.966 8C118.088 8 120.122 8.84285 121.623 10.3431C123.123 11.8434 123.966 13.8783 123.966 16Z" stroke="white" stroke-width="2" stroke-linecap="round" stroke-linejoin="round"/>
</svg>      