<svg width="22" height="22" viewBox="0 0 22 22"  xmlns="http://www.w3.org/2000/svg">
<g id="Group">
<g id="Group_2">
<path id="Vector" d="M18.03 2.56005C16.36 1.17005 14.29 0.260049 12 0.0500488V2.06005C13.73 2.25005 15.31 2.94005 16.61 3.98005L18.03 2.56005Z" fill="black"/>
<path id="Vector_2" d="M9.99997 2.06005V0.0500488C7.70997 0.250049 5.63997 1.17005 3.96997 2.56005L5.38997 3.98005C6.68997 2.94005 8.26997 2.25005 9.99997 2.06005Z" fill="black"/>
<path id="Vector_3" d="M3.98005 5.38997L2.56005 3.96997C1.17005 5.63997 0.260049 7.70997 0.0500488 9.99997H2.06005C2.25005 8.26997 2.94005 6.68997 3.98005 5.38997Z" fill="black"/>
<path id="Vector_4" d="M19.94 9.99997H21.95C21.74 7.70997 20.83 5.63997 19.44 3.96997L18.02 5.38997C19.06 6.68997 19.75 8.26997 19.94 9.99997Z" fill="black"/>
<path id="Vector_5" d="M6 11L9.44 12.56L11 16L12.56 12.56L16 11L12.56 9.44L11 6L9.44 9.44L6 11Z" fill="black"/>
<path id="Vector_6" d="M11 20C7.89 20 5.15 18.41 3.54 16H6V14H0V20H2V17.3C3.99 20.14 7.27 22 11 22C15.87 22 20 18.83 21.44 14.44L19.48 13.99C18.25 17.48 14.92 20 11 20Z" fill="black"/>
</g>
</g>
</svg>
